<svg width="360" height="357" viewBox="0 0 360 357" fill="none" xmlns="http://www.w3.org/2000/svg">
<rect x="0.5" y="0.5" width="359" height="355.414" rx="10.9741" fill="white"/>
<rect x="0.5" y="0.5" width="359" height="355.414" rx="10.9741" stroke="black"/>
<path d="M22.3207 31.9908H26.5501L29.4594 39.0806H29.6061L32.5154 31.9908H36.7448V44.508H33.4199V37.2715H33.3221L30.5351 44.4102H28.5304L25.7434 37.2226H25.6456V44.508H22.3207V31.9908ZM41.0201 44.6547C40.4211 44.6547 39.8914 44.5569 39.431 44.3613C38.9746 44.1616 38.6161 43.8601 38.3553 43.4567C38.0945 43.0533 37.9641 42.5399 37.9641 41.9165C37.9641 41.4031 38.0517 40.9651 38.2269 40.6025C38.4022 40.2357 38.6466 39.9363 38.9604 39.704C39.2741 39.4717 39.6388 39.2945 40.0544 39.1723C40.4741 39.05 40.9264 38.9706 41.4113 38.9339C41.9369 38.8932 42.3586 38.8443 42.6764 38.7872C42.9983 38.7261 43.2306 38.6426 43.3732 38.5366C43.5158 38.4266 43.5871 38.282 43.5871 38.1027V38.0782C43.5871 37.8338 43.4934 37.6463 43.306 37.5159C43.1185 37.3855 42.8781 37.3204 42.5847 37.3204C42.2629 37.3204 42 37.3917 41.7963 37.5343C41.5967 37.6728 41.4765 37.8867 41.4357 38.176H38.3309C38.3716 37.6056 38.5529 37.0799 38.8748 36.5991C39.2008 36.1143 39.6755 35.7272 40.2989 35.4379C40.9223 35.1445 41.7006 34.9978 42.6336 34.9978C43.306 34.9978 43.909 35.0773 44.4428 35.2362C44.9765 35.391 45.4309 35.609 45.8057 35.8902C46.1806 36.1672 46.4658 36.4932 46.6614 36.8681C46.861 37.2389 46.9609 37.6422 46.9609 38.0782V44.508H43.8071V43.1878H43.7338C43.5464 43.5382 43.3182 43.8214 43.0493 44.0373C42.7844 44.2533 42.4808 44.4102 42.1386 44.508C41.8004 44.6058 41.4276 44.6547 41.0201 44.6547ZM42.1202 42.5277C42.3769 42.5277 42.6173 42.4747 42.8414 42.3688C43.0696 42.2629 43.255 42.1101 43.3976 41.9104C43.5402 41.7107 43.6115 41.4683 43.6115 41.1831V40.4008C43.5219 40.4374 43.4262 40.4721 43.3243 40.5047C43.2265 40.5373 43.1206 40.5678 43.0065 40.5963C42.8965 40.6249 42.7783 40.6513 42.652 40.6758C42.5297 40.7002 42.4014 40.7227 42.2669 40.743C42.0062 40.7838 41.7922 40.851 41.6252 40.9447C41.4622 41.0344 41.34 41.1464 41.2585 41.2809C41.181 41.4113 41.1423 41.5579 41.1423 41.7209C41.1423 41.9817 41.234 42.1814 41.4174 42.3199C41.6007 42.4584 41.835 42.5277 42.1202 42.5277ZM50.2903 48.0284C49.9033 48.0284 49.5345 47.9979 49.1841 47.9367C48.8337 47.8797 48.526 47.8003 48.2612 47.6984L48.9946 45.3025C49.2717 45.4003 49.5243 45.4635 49.7525 45.492C49.9847 45.5205 50.1824 45.5042 50.3454 45.4431C50.5124 45.382 50.6326 45.2658 50.706 45.0947L50.7793 44.9236L47.4789 35.1201H50.9993L52.5151 41.6231H52.6129L54.1531 35.1201H57.698L54.2753 45.2903C54.1042 45.8078 53.8556 46.2723 53.5297 46.6838C53.2078 47.0994 52.784 47.4274 52.2584 47.6678C51.7328 47.9082 51.0767 48.0284 50.2903 48.0284ZM62.0619 44.508V42.0632L66.7314 38.2005C67.0411 37.9438 67.3059 37.7034 67.5259 37.4793C67.75 37.2511 67.9212 37.0168 68.0393 36.7764C68.1616 36.536 68.2227 36.2691 68.2227 35.9757C68.2227 35.6538 68.1534 35.3788 68.0149 35.1506C67.8804 34.9224 67.693 34.7472 67.4526 34.625C67.2122 34.4987 66.9351 34.4355 66.6214 34.4355C66.3076 34.4355 66.0306 34.4987 65.7902 34.625C65.5538 34.7513 65.3705 34.9367 65.2401 35.1812C65.1097 35.4257 65.0445 35.7231 65.0445 36.0735H61.8174C61.8174 35.1934 62.015 34.4355 62.4103 33.7999C62.8055 33.1642 63.3637 32.6753 64.0849 32.333C64.8061 31.9908 65.6516 31.8196 66.6214 31.8196C67.6237 31.8196 68.4916 31.9806 69.2251 32.3025C69.9626 32.6203 70.531 33.0685 70.9303 33.6471C71.3337 34.2257 71.5354 34.9041 71.5354 35.6824C71.5354 36.1632 71.4355 36.6419 71.2359 37.1187C71.0362 37.5913 70.6777 38.1149 70.1602 38.6894C69.6427 39.2639 68.9072 39.9485 67.9538 40.743L66.7803 41.7209V41.7943H71.6698V44.508H62.0619ZM78.6405 44.8502C77.5036 44.8462 76.5217 44.5833 75.6945 44.0618C74.8674 43.5402 74.2297 42.7885 73.7815 41.8065C73.3333 40.8245 73.1112 39.647 73.1153 38.2738C73.1194 36.8966 73.3435 35.7272 73.7876 34.7656C74.2358 33.804 74.8714 33.0726 75.6945 32.5714C76.5217 32.0702 77.5036 31.8196 78.6405 31.8196C79.7773 31.8196 80.7593 32.0723 81.5864 32.5775C82.4136 33.0787 83.0512 33.8101 83.4994 34.7717C83.9476 35.7333 84.1697 36.9007 84.1656 38.2738C84.1656 39.6551 83.9415 40.8367 83.4933 41.8187C83.0451 42.8007 82.4074 43.5525 81.5803 44.074C80.7572 44.5915 79.7773 44.8502 78.6405 44.8502ZM78.6405 42.0876C79.2272 42.0876 79.708 41.7821 80.0829 41.1709C80.4618 40.5556 80.6492 39.5899 80.6452 38.2738C80.6452 37.4141 80.5596 36.7112 80.3885 36.1652C80.2173 35.6192 79.981 35.2158 79.6795 34.955C79.378 34.6902 79.0316 34.5578 78.6405 34.5578C78.0537 34.5578 77.575 34.8552 77.2042 35.4501C76.8334 36.045 76.6439 36.9862 76.6358 38.2738C76.6317 39.1499 76.7152 39.8711 76.8863 40.4374C77.0575 40.9997 77.2938 41.4153 77.5953 41.6843C77.9009 41.9532 78.2493 42.0876 78.6405 42.0876ZM85.7608 44.508V42.0632L90.4304 38.2005C90.74 37.9438 91.0049 37.7034 91.2249 37.4793C91.449 37.2511 91.6201 37.0168 91.7383 36.7764C91.8605 36.536 91.9217 36.2691 91.9217 35.9757C91.9217 35.6538 91.8524 35.3788 91.7139 35.1506C91.5794 34.9224 91.392 34.7472 91.1516 34.625C90.9112 34.4987 90.6341 34.4355 90.3203 34.4355C90.0066 34.4355 89.7295 34.4987 89.4891 34.625C89.2528 34.7513 89.0694 34.9367 88.939 35.1812C88.8087 35.4257 88.7435 35.7231 88.7435 36.0735H85.5164C85.5164 35.1934 85.714 34.4355 86.1092 33.7999C86.5045 33.1642 87.0627 32.6753 87.7839 32.333C88.5051 31.9908 89.3506 31.8196 90.3203 31.8196C91.3227 31.8196 92.1906 31.9806 92.924 32.3025C93.6615 32.6203 94.2299 33.0685 94.6292 33.6471C95.0326 34.2257 95.2343 34.9041 95.2343 35.6824C95.2343 36.1632 95.1345 36.6419 94.9348 37.1187C94.7352 37.5913 94.3766 38.1149 93.8591 38.6894C93.3417 39.2639 92.6062 39.9485 91.6527 40.743L90.4792 41.7209V41.7943H95.3688V44.508H85.7608ZM101.777 44.6791C100.791 44.6791 99.915 44.51 99.149 44.1718C98.387 43.8295 97.7881 43.3589 97.3521 42.76C96.9161 42.161 96.6961 41.4724 96.692 40.6941H100.115C100.119 40.9345 100.192 41.1505 100.335 41.342C100.481 41.5294 100.681 41.6761 100.934 41.7821C101.186 41.888 101.476 41.941 101.802 41.941C102.115 41.941 102.392 41.886 102.633 41.7759C102.873 41.6618 103.061 41.505 103.195 41.3053C103.33 41.1057 103.395 40.8775 103.391 40.6208C103.395 40.3682 103.317 40.1441 103.158 39.9485C103.004 39.7529 102.786 39.6001 102.504 39.4901C102.223 39.3801 101.899 39.3251 101.533 39.3251H100.261V36.9781H101.533C101.871 36.9781 102.168 36.9231 102.425 36.8131C102.686 36.703 102.887 36.5503 103.03 36.3547C103.177 36.1591 103.248 35.935 103.244 35.6824C103.248 35.4379 103.189 35.2219 103.067 35.0345C102.944 34.8471 102.773 34.7004 102.553 34.5944C102.337 34.4885 102.087 34.4355 101.802 34.4355C101.492 34.4355 101.215 34.4905 100.97 34.6005C100.73 34.7106 100.54 34.8634 100.402 35.0589C100.263 35.2545 100.192 35.4786 100.188 35.7313H96.9365C96.9406 34.9652 97.1504 34.2888 97.566 33.7021C97.9857 33.1154 98.5602 32.6549 99.2896 32.3208C100.019 31.9867 100.856 31.8196 101.802 31.8196C102.727 31.8196 103.543 31.9765 104.252 32.2902C104.966 32.604 105.522 33.0359 105.921 33.586C106.324 34.132 106.524 34.7574 106.52 35.4623C106.528 36.1632 106.288 36.7377 105.799 37.1859C105.314 37.6341 104.699 37.8989 103.953 37.9804V38.0782C104.963 38.1882 105.723 38.4979 106.233 39.0072C106.742 39.5125 106.993 40.1481 106.984 40.9142C106.989 41.6476 106.769 42.2975 106.324 42.8639C105.884 43.4302 105.271 43.8744 104.485 44.1963C103.702 44.5182 102.8 44.6791 101.777 44.6791Z" fill="black"/>
<path fill-rule="evenodd" clip-rule="evenodd" d="M284.702 33.503C284.97 33.2225 285.418 33.2225 285.686 33.503V33.503C285.938 33.766 285.938 34.1801 285.686 34.4431L282.281 38.008L285.686 41.5728C285.938 41.8358 285.938 42.2499 285.686 42.5129V42.5129C285.418 42.7934 284.97 42.7934 284.702 42.5129L280.398 38.008L284.702 33.503Z" fill="#AFAFAF"/>
<path fill-rule="evenodd" clip-rule="evenodd" d="M320.557 33.503C320.289 33.2225 319.841 33.2225 319.573 33.503V33.503C319.321 33.766 319.321 34.1801 319.573 34.4431L322.978 38.008L319.573 41.5728C319.321 41.8358 319.321 42.2499 319.573 42.5129V42.5129C319.841 42.7934 320.289 42.7934 320.557 42.5129L324.861 38.008L320.557 33.503Z" fill="black"/>
<g clip-path="url(#clip0_14_301)">
<path d="M37.5789 82.1485H39.1976L41.3652 87.4394H41.4508L43.6185 82.1485H45.2371V89.4502H43.9679V84.4338H43.9002L41.8822 89.4288H40.9339L38.9159 84.4231H38.8482V89.4502H37.5789V82.1485ZM49.0092 89.5572C48.4744 89.5572 48.0109 89.4395 47.6188 89.2042C47.2266 88.9689 46.9223 88.6397 46.706 88.2166C46.4921 87.7935 46.3852 87.2991 46.3852 86.7334C46.3852 86.1678 46.4921 85.6722 46.706 85.2467C46.9223 84.8213 47.2266 84.4909 47.6188 84.2556C48.0109 84.0203 48.4744 83.9026 49.0092 83.9026C49.544 83.9026 50.0075 84.0203 50.3997 84.2556C50.7919 84.4909 51.0949 84.8213 51.3088 85.2467C51.5251 85.6722 51.6333 86.1678 51.6333 86.7334C51.6333 87.2991 51.5251 87.7935 51.3088 88.2166C51.0949 88.6397 50.7919 88.9689 50.3997 89.2042C50.0075 89.4395 49.544 89.5572 49.0092 89.5572ZM49.0164 88.5232C49.3063 88.5232 49.5488 88.4436 49.7437 88.2843C49.9386 88.1227 50.0836 87.9064 50.1786 87.6355C50.2761 87.3645 50.3248 87.0626 50.3248 86.7299C50.3248 86.3947 50.2761 86.0917 50.1786 85.8207C50.0836 85.5474 49.9386 85.3299 49.7437 85.1683C49.5488 85.0067 49.3063 84.9258 49.0164 84.9258C48.7192 84.9258 48.4721 85.0067 48.2748 85.1683C48.0799 85.3299 47.9337 85.5474 47.8362 85.8207C47.7412 86.0917 47.6936 86.3947 47.6936 86.7299C47.6936 87.0626 47.7412 87.3645 47.8362 87.6355C47.9337 87.9064 48.0799 88.1227 48.2748 88.2843C48.4721 88.4436 48.7192 88.5232 49.0164 88.5232Z" fill="black"/>
<path d="M84.0453 83.2573V82.1485H89.871V83.2573H87.6142V89.4502H86.3021V83.2573H84.0453ZM93.6823 87.147V83.9739H94.9729V89.4502H93.7215V88.4769H93.6644C93.5408 88.7835 93.3376 89.0342 93.0548 89.2291C92.7743 89.424 92.4285 89.5215 92.0173 89.5215C91.6584 89.5215 91.3411 89.4419 91.0654 89.2826C90.792 89.121 90.5781 88.8869 90.4236 88.5803C90.2691 88.2713 90.1919 87.8981 90.1919 87.4608V83.9739H91.4825V87.2611C91.4825 87.6081 91.5776 87.8838 91.7677 88.0883C91.9579 88.2927 92.2074 88.3949 92.5164 88.3949C92.7066 88.3949 92.8908 88.3485 93.069 88.2558C93.2473 88.1631 93.3935 88.0253 93.5076 87.8423C93.624 87.6569 93.6823 87.4251 93.6823 87.147Z" fill="black"/>
<path d="M129.327 89.4502L127.266 82.1485H128.689L130.004 87.5142H130.072L131.477 82.1485H132.771L134.179 87.5178H134.244L135.559 82.1485H136.982L134.921 89.4502H133.616L132.154 84.3269H132.097L130.632 89.4502H129.327ZM139.707 89.5572C139.158 89.5572 138.684 89.4431 138.285 89.2149C137.888 88.9843 137.582 88.6587 137.369 88.238C137.155 87.8149 137.048 87.317 137.048 86.7441C137.048 86.1808 137.155 85.6864 137.369 85.261C137.585 84.8332 137.887 84.5004 138.274 84.2627C138.662 84.0226 139.117 83.9026 139.64 83.9026C139.977 83.9026 140.296 83.9573 140.595 84.0666C140.897 84.1736 141.163 84.34 141.394 84.5658C141.627 84.7916 141.81 85.0792 141.943 85.4286C142.076 85.7756 142.142 86.1891 142.142 86.6693V87.065H137.654V86.1951H140.905C140.903 85.9479 140.849 85.728 140.745 85.5355C140.64 85.3406 140.494 85.1873 140.306 85.0756C140.121 84.9639 139.905 84.908 139.657 84.908C139.394 84.908 139.162 84.9722 138.962 85.1005C138.763 85.2265 138.607 85.3929 138.495 85.5997C138.386 85.8041 138.33 86.0287 138.328 86.2735V87.0329C138.328 87.3514 138.386 87.6248 138.502 87.8529C138.619 88.0787 138.782 88.2523 138.991 88.3735C139.2 88.4923 139.445 88.5517 139.725 88.5517C139.913 88.5517 140.083 88.5256 140.235 88.4733C140.387 88.4186 140.519 88.339 140.631 88.2344C140.742 88.1299 140.827 88.0003 140.884 87.8458L142.089 87.9813C142.013 88.2998 141.868 88.5779 141.654 88.8156C141.442 89.0509 141.171 89.2339 140.841 89.3646C140.511 89.493 140.133 89.5572 139.707 89.5572Z" fill="black"/>
<path d="M174.007 83.2573V82.1485H179.832V83.2573H177.576V89.4502H176.264V83.2573H174.007ZM182.189 86.2414V89.4502H180.898V82.1485H182.161V84.9045H182.225C182.353 84.5955 182.552 84.3518 182.82 84.1736C183.091 83.9929 183.436 83.9026 183.854 83.9026C184.234 83.9026 184.566 83.9822 184.849 84.1415C185.132 84.3007 185.35 84.5337 185.505 84.8403C185.662 85.1469 185.74 85.5213 185.74 85.9633V89.4502H184.449V86.163C184.449 85.7946 184.354 85.5082 184.164 85.3038C183.976 85.097 183.713 84.9936 183.373 84.9936C183.145 84.9936 182.94 85.0435 182.76 85.1433C182.581 85.2408 182.441 85.3822 182.339 85.5676C182.239 85.753 182.189 85.9776 182.189 86.2414Z" fill="black"/>
<path d="M221.007 89.4502V82.1485H225.685V83.2573H222.33V85.2396H225.364V86.3484H222.33V89.4502H221.007ZM226.754 89.4502V83.9739H228.006V84.8866H228.063C228.163 84.5705 228.334 84.3269 228.576 84.1557C228.821 83.9822 229.1 83.8955 229.414 83.8955C229.485 83.8955 229.565 83.899 229.653 83.9062C229.743 83.9109 229.818 83.9193 229.877 83.9311V85.1184C229.823 85.0994 229.736 85.0827 229.617 85.0685C229.501 85.0518 229.388 85.0435 229.278 85.0435C229.043 85.0435 228.832 85.0946 228.644 85.1968C228.458 85.2966 228.312 85.4357 228.205 85.6139C228.098 85.7922 228.045 85.9978 228.045 86.2307V89.4502H226.754Z" fill="black"/>
<path d="M268.904 84.1557C268.871 83.8444 268.731 83.6019 268.484 83.4284C268.239 83.2549 267.92 83.1682 267.528 83.1682C267.253 83.1682 267.016 83.2098 266.819 83.2929C266.621 83.3761 266.471 83.489 266.366 83.6317C266.261 83.7743 266.208 83.9371 266.206 84.1201C266.206 84.2722 266.24 84.4041 266.309 84.5158C266.38 84.6276 266.476 84.7226 266.598 84.8011C266.719 84.8771 266.853 84.9413 267.001 84.9936C267.148 85.0459 267.296 85.0899 267.446 85.1255L268.131 85.2966C268.406 85.3608 268.672 85.4476 268.926 85.5569C269.183 85.6662 269.412 85.8041 269.614 85.9705C269.818 86.1369 269.98 86.3377 270.099 86.573C270.218 86.8083 270.277 87.084 270.277 87.4002C270.277 87.828 270.168 88.2047 269.949 88.5304C269.73 88.8536 269.414 89.1067 269.001 89.2898C268.59 89.4704 268.092 89.5607 267.507 89.5607C266.939 89.5607 266.446 89.4728 266.027 89.2969C265.611 89.121 265.286 88.8643 265.05 88.5268C264.817 88.1893 264.691 87.7781 264.672 87.2932H265.974C265.993 87.5475 266.071 87.7591 266.209 87.9278C266.347 88.0966 266.526 88.2225 266.747 88.3057C266.971 88.3889 267.22 88.4305 267.496 88.4305C267.784 88.4305 268.036 88.3877 268.252 88.3022C268.471 88.2142 268.642 88.093 268.765 87.9385C268.889 87.7816 268.952 87.5986 268.954 87.3895C268.952 87.1993 268.896 87.0424 268.787 86.9188C268.677 86.7929 268.524 86.6883 268.327 86.6051C268.132 86.5195 267.904 86.4435 267.642 86.3769L266.812 86.163C266.21 86.0085 265.735 85.7744 265.386 85.4606C265.038 85.1445 264.865 84.725 264.865 84.2021C264.865 83.7719 264.981 83.3952 265.214 83.0719C265.45 82.7486 265.769 82.4979 266.173 82.3196C266.577 82.139 267.035 82.0487 267.546 82.0487C268.064 82.0487 268.518 82.139 268.908 82.3196C269.3 82.4979 269.608 82.7463 269.831 83.0648C270.055 83.3809 270.17 83.7446 270.177 84.1557H268.904ZM272.975 89.5607C272.628 89.5607 272.316 89.4989 272.037 89.3753C271.762 89.2494 271.543 89.064 271.381 88.8191C271.222 88.5743 271.143 88.2725 271.143 87.9136C271.143 87.6046 271.2 87.3491 271.314 87.147C271.428 86.945 271.583 86.7834 271.781 86.6621C271.978 86.5409 272.2 86.4494 272.447 86.3876C272.697 86.3234 272.955 86.2771 273.221 86.2486C273.542 86.2153 273.802 86.1856 274.002 86.1594C274.202 86.1309 274.347 86.0881 274.437 86.0311C274.53 85.9717 274.576 85.8802 274.576 85.7566V85.7352C274.576 85.4666 274.496 85.2586 274.337 85.1112C274.178 84.9639 273.948 84.8902 273.649 84.8902C273.333 84.8902 273.082 84.9591 272.897 85.097C272.714 85.2348 272.59 85.3977 272.526 85.5854L271.321 85.4143C271.416 85.0815 271.573 84.8034 271.791 84.58C272.01 84.3542 272.277 84.1855 272.594 84.0737C272.91 83.9597 273.259 83.9026 273.642 83.9026C273.906 83.9026 274.168 83.9335 274.43 83.9953C274.691 84.0571 274.93 84.1593 275.146 84.3019C275.363 84.4422 275.536 84.6335 275.667 84.8759C275.8 85.1184 275.867 85.4214 275.867 85.7851V89.4502H274.626V88.6979H274.583C274.505 88.85 274.394 88.9927 274.251 89.1258C274.111 89.2565 273.934 89.3623 273.72 89.4431C273.509 89.5215 273.26 89.5607 272.975 89.5607ZM273.31 88.6124C273.569 88.6124 273.794 88.5613 273.984 88.459C274.174 88.3545 274.32 88.2166 274.423 88.0455C274.527 87.8743 274.579 87.6878 274.579 87.4857V86.8404C274.539 86.8737 274.47 86.9046 274.373 86.9331C274.278 86.9616 274.171 86.9866 274.052 87.008C273.933 87.0294 273.815 87.0484 273.699 87.065C273.582 87.0817 273.481 87.0959 273.396 87.1078C273.203 87.1339 273.031 87.1767 272.879 87.2362C272.727 87.2956 272.607 87.3788 272.519 87.4857C272.431 87.5903 272.387 87.7258 272.387 87.8922C272.387 88.1299 272.474 88.3093 272.647 88.4305C272.821 88.5517 273.042 88.6124 273.31 88.6124Z" fill="black"/>
<path d="M313.912 84.1557C313.879 83.8444 313.739 83.6019 313.491 83.4284C313.247 83.2549 312.928 83.1682 312.536 83.1682C312.26 83.1682 312.024 83.2098 311.826 83.2929C311.629 83.3761 311.478 83.489 311.374 83.6317C311.269 83.7743 311.216 83.9371 311.213 84.1201C311.213 84.2722 311.248 84.4041 311.317 84.5158C311.388 84.6276 311.484 84.7226 311.605 84.8011C311.727 84.8771 311.861 84.9413 312.008 84.9936C312.156 85.0459 312.304 85.0899 312.454 85.1255L313.138 85.2966C313.414 85.3608 313.679 85.4476 313.933 85.5569C314.19 85.6662 314.42 85.8041 314.622 85.9705C314.826 86.1369 314.988 86.3377 315.106 86.573C315.225 86.8083 315.285 87.084 315.285 87.4002C315.285 87.828 315.175 88.2047 314.957 88.5304C314.738 88.8536 314.422 89.1067 314.008 89.2898C313.597 89.4704 313.099 89.5607 312.514 89.5607C311.946 89.5607 311.453 89.4728 311.035 89.2969C310.619 89.121 310.293 88.8643 310.058 88.5268C309.825 88.1893 309.699 87.7781 309.68 87.2932H310.981C311 87.5475 311.079 87.7591 311.217 87.9278C311.355 88.0966 311.534 88.2225 311.755 88.3057C311.978 88.3889 312.228 88.4305 312.504 88.4305C312.791 88.4305 313.043 88.3877 313.26 88.3022C313.478 88.2142 313.649 88.093 313.773 87.9385C313.897 87.7816 313.96 87.5986 313.962 87.3895C313.96 87.1993 313.904 87.0424 313.794 86.9188C313.685 86.7929 313.532 86.6883 313.334 86.6051C313.14 86.5195 312.911 86.4435 312.65 86.3769L311.819 86.163C311.218 86.0085 310.743 85.7744 310.393 85.4606C310.046 85.1445 309.873 84.725 309.873 84.2021C309.873 83.7719 309.989 83.3952 310.222 83.0719C310.457 82.7486 310.777 82.4979 311.181 82.3196C311.585 82.139 312.043 82.0487 312.554 82.0487C313.072 82.0487 313.526 82.139 313.916 82.3196C314.308 82.4979 314.616 82.7463 314.839 83.0648C315.062 83.3809 315.178 83.7446 315.185 84.1557H313.912ZM319.897 87.147V83.9739H321.188V89.4502H319.936V88.4769H319.879C319.756 88.7835 319.553 89.0342 319.27 89.2291C318.989 89.424 318.643 89.5215 318.232 89.5215C317.873 89.5215 317.556 89.4419 317.28 89.2826C317.007 89.121 316.793 88.8869 316.639 88.5803C316.484 88.2713 316.407 87.8981 316.407 87.4608V83.9739H317.697V87.2611C317.697 87.6081 317.793 87.8838 317.983 88.0883C318.173 88.2927 318.422 88.3949 318.731 88.3949C318.922 88.3949 319.106 88.3485 319.284 88.2558C319.462 88.1631 319.608 88.0253 319.723 87.8423C319.839 87.6569 319.897 87.4251 319.897 87.147Z" fill="black"/>
<rect x="21.8725" y="108.645" width="45.1793" height="45.1793" stroke="#D5D4DF" stroke-width="0.717131"/>
<path d="M45.4475 127.328V134.629H44.5633V128.255H44.5205L42.7379 129.438V128.54L44.5633 127.328H45.4475Z" fill="black"/>
<rect x="67.0518" y="108.645" width="45.1793" height="45.1793" stroke="#D5D4DF" stroke-width="0.717131"/>
<path d="M87.361 134.629V133.988L89.7712 131.349C90.054 131.04 90.2869 130.772 90.4699 130.544C90.653 130.313 90.7884 130.097 90.8764 129.895C90.9667 129.69 91.0119 129.476 91.0119 129.253C91.0119 128.996 90.9501 128.774 90.8265 128.586C90.7053 128.399 90.5389 128.254 90.3273 128.151C90.1158 128.049 89.8781 127.998 89.6143 127.998C89.3338 127.998 89.089 128.056 88.8798 128.173C88.673 128.287 88.5126 128.447 88.3985 128.654C88.2868 128.861 88.231 129.103 88.231 129.381H87.3895C87.3895 128.954 87.4882 128.578 87.6855 128.255C87.8827 127.932 88.1513 127.68 88.4912 127.499C88.8335 127.318 89.2173 127.228 89.6428 127.228C90.0706 127.228 90.4497 127.318 90.7801 127.499C91.1105 127.68 91.3696 127.923 91.5574 128.23C91.7451 128.536 91.839 128.877 91.839 129.253C91.839 129.522 91.7903 129.784 91.6928 130.041C91.5978 130.295 91.4314 130.579 91.1937 130.893C90.9584 131.204 90.6316 131.585 90.2132 132.034L88.5732 133.788V133.845H91.9674V134.629H87.361Z" fill="black"/>
<rect x="112.231" y="108.645" width="45.1793" height="45.1793" stroke="#D5D4DF" stroke-width="0.717131"/>
<path d="M134.851 134.729C134.38 134.729 133.96 134.649 133.592 134.487C133.226 134.325 132.935 134.101 132.718 133.813C132.505 133.523 132.388 133.187 132.369 132.804H133.268C133.287 133.039 133.367 133.243 133.51 133.414C133.653 133.582 133.839 133.713 134.07 133.806C134.3 133.899 134.556 133.945 134.836 133.945C135.15 133.945 135.428 133.89 135.671 133.781C135.913 133.672 136.103 133.519 136.241 133.325C136.379 133.13 136.448 132.904 136.448 132.647C136.448 132.379 136.381 132.142 136.248 131.938C136.115 131.731 135.92 131.569 135.663 131.453C135.407 131.336 135.093 131.278 134.722 131.278H134.137V130.494H134.722C135.012 130.494 135.266 130.441 135.485 130.337C135.706 130.232 135.879 130.085 136.002 129.895C136.128 129.705 136.191 129.481 136.191 129.225C136.191 128.977 136.136 128.762 136.027 128.579C135.918 128.396 135.763 128.254 135.564 128.151C135.366 128.049 135.133 127.998 134.865 127.998C134.613 127.998 134.375 128.044 134.152 128.137C133.931 128.227 133.75 128.359 133.61 128.533C133.47 128.704 133.394 128.911 133.382 129.153H132.526C132.54 128.771 132.655 128.435 132.872 128.148C133.088 127.858 133.371 127.632 133.72 127.47C134.072 127.309 134.458 127.228 134.879 127.228C135.331 127.228 135.718 127.319 136.041 127.502C136.365 127.683 136.613 127.922 136.786 128.219C136.96 128.516 137.047 128.837 137.047 129.182C137.047 129.593 136.939 129.944 136.722 130.233C136.508 130.523 136.217 130.724 135.849 130.836V130.893C136.31 130.969 136.67 131.165 136.929 131.481C137.188 131.795 137.318 132.184 137.318 132.647C137.318 133.044 137.21 133.401 136.993 133.717C136.779 134.031 136.487 134.278 136.116 134.458C135.745 134.639 135.324 134.729 134.851 134.729Z" fill="black"/>
<rect x="157.41" y="108.645" width="45.1793" height="45.1793" stroke="#D5D4DF" stroke-width="0.717131"/>
<path d="M177.334 133.132V132.405L180.543 127.328H181.071V128.454H180.714L178.29 132.291V132.348H182.611V133.132H177.334ZM180.771 134.629V132.911V132.572V127.328H181.613V134.629H180.771Z" fill="black"/>
<rect x="202.59" y="108.645" width="45.1793" height="45.1793" stroke="#D5D4DF" stroke-width="0.717131"/>
<path d="M225.152 134.729C224.734 134.729 224.357 134.646 224.022 134.48C223.687 134.313 223.418 134.085 223.216 133.795C223.014 133.505 222.904 133.175 222.885 132.804H223.74C223.774 133.134 223.923 133.408 224.189 133.624C224.458 133.838 224.779 133.945 225.152 133.945C225.452 133.945 225.718 133.875 225.951 133.735C226.186 133.594 226.37 133.402 226.503 133.157C226.639 132.91 226.707 132.631 226.707 132.319C226.707 132.001 226.636 131.717 226.496 131.467C226.358 131.215 226.168 131.017 225.926 130.872C225.683 130.727 225.406 130.653 225.095 130.651C224.872 130.648 224.642 130.683 224.407 130.754C224.172 130.823 223.978 130.912 223.826 131.021L222.999 130.922L223.441 127.328H227.234V128.112H224.182L223.926 130.266H223.968C224.118 130.147 224.306 130.048 224.532 129.97C224.758 129.891 224.993 129.852 225.238 129.852C225.685 129.852 226.083 129.959 226.432 130.173C226.784 130.384 227.06 130.674 227.259 131.043C227.461 131.411 227.562 131.832 227.562 132.305C227.562 132.771 227.458 133.187 227.249 133.553C227.042 133.916 226.757 134.204 226.393 134.416C226.029 134.625 225.616 134.729 225.152 134.729Z" fill="black"/>
<rect x="247.769" y="108.645" width="45.1793" height="45.1793" stroke="#D5D4DF" stroke-width="0.717131"/>
<path d="M270.403 134.729C270.103 134.725 269.804 134.668 269.504 134.558C269.205 134.449 268.931 134.265 268.684 134.006C268.437 133.744 268.239 133.391 268.089 132.947C267.939 132.5 267.864 131.939 267.864 131.264C267.864 130.617 267.925 130.045 268.046 129.545C268.167 129.044 268.343 128.622 268.574 128.28C268.804 127.935 269.082 127.674 269.408 127.495C269.736 127.317 270.106 127.228 270.517 127.228C270.926 127.228 271.289 127.31 271.608 127.474C271.929 127.636 272.19 127.861 272.392 128.151C272.594 128.441 272.725 128.775 272.784 129.153H271.914C271.834 128.825 271.677 128.553 271.444 128.337C271.211 128.12 270.902 128.012 270.517 128.012C269.951 128.012 269.505 128.258 269.18 128.75C268.857 129.242 268.694 129.933 268.691 130.822H268.748C268.882 130.62 269.04 130.447 269.223 130.305C269.408 130.16 269.612 130.048 269.836 129.97C270.059 129.891 270.296 129.852 270.545 129.852C270.964 129.852 271.346 129.957 271.693 130.166C272.04 130.373 272.318 130.659 272.528 131.025C272.737 131.389 272.841 131.806 272.841 132.276C272.841 132.728 272.74 133.142 272.538 133.517C272.336 133.89 272.052 134.187 271.686 134.408C271.323 134.627 270.895 134.734 270.403 134.729ZM270.403 133.945C270.702 133.945 270.971 133.87 271.209 133.72C271.449 133.571 271.638 133.37 271.775 133.118C271.916 132.866 271.986 132.585 271.986 132.276C271.986 131.975 271.918 131.7 271.783 131.453C271.649 131.203 271.465 131.005 271.23 130.857C270.997 130.71 270.731 130.636 270.431 130.636C270.205 130.636 269.995 130.682 269.8 130.772C269.605 130.86 269.434 130.981 269.287 131.136C269.142 131.29 269.028 131.467 268.945 131.667C268.861 131.864 268.82 132.072 268.82 132.291C268.82 132.581 268.888 132.852 269.023 133.104C269.161 133.355 269.349 133.559 269.586 133.713C269.826 133.868 270.099 133.945 270.403 133.945Z" fill="black"/>
<rect x="292.948" y="108.645" width="45.1793" height="45.1793" stroke="#D5D4DF" stroke-width="0.717131"/>
<path d="M313.657 134.629L316.922 128.169V128.112H313.158V127.328H317.835V128.155L314.584 134.629H313.657Z" fill="black"/>
<rect x="21.8725" y="153.825" width="45.1793" height="45.1793" stroke="#D5D4DF" stroke-width="0.717131"/>
<path d="M44.4635 179.909C43.9738 179.909 43.5413 179.822 43.1657 179.648C42.7926 179.472 42.5014 179.231 42.2922 178.925C42.0831 178.616 41.9797 178.264 41.982 177.869C41.9797 177.56 42.0403 177.275 42.1639 177.014C42.2875 176.75 42.4562 176.53 42.6701 176.354C42.8864 176.176 43.1277 176.063 43.3939 176.015V175.973C43.0445 175.882 42.7664 175.686 42.5596 175.384C42.3528 175.08 42.2506 174.734 42.253 174.347C42.2506 173.976 42.3445 173.644 42.5347 173.352C42.7248 173.06 42.9863 172.829 43.319 172.66C43.6542 172.492 44.0356 172.407 44.4635 172.407C44.8866 172.407 45.2645 172.492 45.5972 172.66C45.93 172.829 46.1915 173.06 46.3816 173.352C46.5741 173.644 46.6716 173.976 46.674 174.347C46.6716 174.734 46.5658 175.08 46.3566 175.384C46.1499 175.686 45.8753 175.882 45.5331 175.973V176.015C45.7969 176.063 46.0346 176.176 46.2461 176.354C46.4577 176.53 46.6264 176.75 46.7524 177.014C46.8784 177.275 46.9425 177.56 46.9449 177.869C46.9425 178.264 46.8356 178.616 46.624 178.925C46.4149 179.231 46.1237 179.472 45.7505 179.648C45.3798 179.822 44.9507 179.909 44.4635 179.909ZM44.4635 179.124C44.7939 179.124 45.0791 179.071 45.3192 178.964C45.5592 178.857 45.7446 178.706 45.8753 178.511C46.0061 178.316 46.0726 178.088 46.075 177.826C46.0726 177.551 46.0013 177.307 45.8611 177.096C45.7208 176.884 45.5295 176.718 45.2871 176.596C45.047 176.475 44.7725 176.415 44.4635 176.415C44.1521 176.415 43.874 176.475 43.6292 176.596C43.3868 176.718 43.1954 176.884 43.0552 177.096C42.9173 177.307 42.8496 177.551 42.852 177.826C42.8496 178.088 42.9126 178.316 43.0409 178.511C43.1717 178.706 43.3582 178.857 43.6007 178.964C43.8431 179.071 44.1307 179.124 44.4635 179.124ZM44.4635 175.659C44.7249 175.659 44.9567 175.606 45.1587 175.502C45.3631 175.397 45.5236 175.251 45.64 175.063C45.7565 174.876 45.8159 174.656 45.8183 174.404C45.8159 174.157 45.7577 173.942 45.6436 173.758C45.5295 173.573 45.3714 173.43 45.1694 173.331C44.9674 173.228 44.7321 173.177 44.4635 173.177C44.1901 173.177 43.9513 173.228 43.7469 173.331C43.5425 173.43 43.3844 173.573 43.2727 173.758C43.161 173.942 43.1063 174.157 43.1087 174.404C43.1063 174.656 43.1622 174.876 43.2762 175.063C43.3927 175.251 43.5531 175.397 43.7576 175.502C43.962 175.606 44.1973 175.659 44.4635 175.659Z" fill="black"/>
<rect x="67.0518" y="153.825" width="45.1793" height="45.1793" stroke="#D5D4DF" stroke-width="0.717131"/>
<path d="M89.5858 172.407C89.8852 172.41 90.1847 172.467 90.4842 172.578C90.7837 172.69 91.057 172.875 91.3042 173.135C91.5514 173.391 91.7499 173.742 91.8996 174.186C92.0494 174.631 92.1242 175.188 92.1242 175.858C92.1242 176.507 92.0624 177.084 91.9388 177.588C91.8176 178.089 91.6417 178.512 91.4112 178.857C91.183 179.201 90.9049 179.463 90.5769 179.641C90.2513 179.819 89.8829 179.909 89.4717 179.909C89.0629 179.909 88.698 179.828 88.3771 179.666C88.0586 179.502 87.7972 179.275 87.5928 178.985C87.3907 178.693 87.2612 178.354 87.2041 177.969H88.0741C88.1525 178.304 88.3082 178.581 88.5411 178.8C88.7764 179.016 89.0866 179.124 89.4717 179.124C90.035 179.124 90.4795 178.878 90.8051 178.386C91.1331 177.894 91.2971 177.199 91.2971 176.301H91.2401C91.1069 176.5 90.9489 176.673 90.7659 176.818C90.5828 176.962 90.3796 177.074 90.1562 177.153C89.9328 177.231 89.6951 177.27 89.4431 177.27C89.0248 177.27 88.641 177.167 88.2916 176.96C87.9445 176.751 87.6664 176.465 87.4573 176.101C87.2505 175.735 87.1471 175.317 87.1471 174.846C87.1471 174.399 87.2469 173.99 87.4466 173.619C87.6486 173.246 87.9315 172.949 88.2951 172.728C88.6612 172.507 89.0914 172.4 89.5858 172.407ZM89.5858 173.192C89.2863 173.192 89.0165 173.266 88.7764 173.416C88.5388 173.564 88.3498 173.763 88.2096 174.015C88.0717 174.265 88.0028 174.542 88.0028 174.846C88.0028 175.15 88.0693 175.427 88.2024 175.677C88.3379 175.924 88.5221 176.121 88.755 176.268C88.9904 176.413 89.2578 176.486 89.5572 176.486C89.783 176.486 89.9934 176.442 90.1883 176.354C90.3832 176.264 90.5531 176.141 90.6981 175.987C90.8455 175.83 90.9608 175.653 91.044 175.456C91.1272 175.256 91.1687 175.048 91.1687 174.832C91.1687 174.546 91.0998 174.279 90.962 174.029C90.8265 173.78 90.6387 173.578 90.3986 173.423C90.161 173.269 89.89 173.192 89.5858 173.192Z" fill="black"/>
<rect x="112.231" y="153.825" width="45.1793" height="45.1793" stroke="#D5D4DF" stroke-width="0.717131"/>
<path d="M132.556 172.507V179.809H131.672V173.434H131.629L129.846 174.618V173.719L131.672 172.507H132.556ZM138.072 179.909C137.535 179.909 137.077 179.762 136.7 179.47C136.322 179.175 136.033 178.749 135.833 178.19C135.634 177.629 135.534 176.952 135.534 176.158C135.534 175.369 135.634 174.695 135.833 174.136C136.035 173.575 136.325 173.148 136.703 172.853C137.083 172.556 137.54 172.407 138.072 172.407C138.605 172.407 139.06 172.556 139.438 172.853C139.818 173.148 140.108 173.575 140.308 174.136C140.51 174.695 140.611 175.369 140.611 176.158C140.611 176.952 140.511 177.629 140.311 178.19C140.112 178.749 139.823 179.175 139.445 179.47C139.067 179.762 138.609 179.909 138.072 179.909ZM138.072 179.124C138.605 179.124 139.018 178.868 139.313 178.354C139.608 177.841 139.755 177.109 139.755 176.158C139.755 175.526 139.687 174.987 139.552 174.543C139.419 174.098 139.226 173.76 138.974 173.527C138.725 173.294 138.424 173.177 138.072 173.177C137.545 173.177 137.132 173.438 136.835 173.958C136.538 174.476 136.389 175.21 136.389 176.158C136.389 176.79 136.456 177.327 136.589 177.769C136.722 178.212 136.913 178.548 137.163 178.778C137.415 179.009 137.718 179.124 138.072 179.124Z" fill="black"/>
<rect x="157.41" y="153.825" width="45.1793" height="45.1793" stroke="#D5D4DF" stroke-width="0.717131"/>
<path d="M177.735 172.507V179.809H176.851V173.434H176.808L175.026 174.618V173.719L176.851 172.507H177.735ZM184.236 172.507V179.809H183.351V173.434H183.309L181.526 174.618V173.719L183.351 172.507H184.236Z" fill="black"/>
<rect x="202.59" y="153.825" width="45.1793" height="45.1793" stroke="#D5D4DF" stroke-width="0.717131"/>
<path d="M222.914 172.507V179.809H222.03V173.434H221.987L220.205 174.618V173.719L222.03 172.507H222.914ZM226.149 179.809V179.167L228.559 176.529C228.842 176.22 229.075 175.951 229.258 175.723C229.441 175.492 229.576 175.276 229.664 175.074C229.755 174.87 229.8 174.656 229.8 174.432C229.8 174.176 229.738 173.953 229.615 173.766C229.493 173.578 229.327 173.433 229.115 173.331C228.904 173.228 228.666 173.177 228.402 173.177C228.122 173.177 227.877 173.236 227.668 173.352C227.461 173.466 227.301 173.627 227.187 173.833C227.075 174.04 227.019 174.283 227.019 174.561H226.178C226.178 174.133 226.276 173.757 226.474 173.434C226.671 173.111 226.939 172.859 227.279 172.678C227.622 172.498 228.005 172.407 228.431 172.407C228.859 172.407 229.238 172.498 229.568 172.678C229.899 172.859 230.158 173.102 230.345 173.409C230.533 173.716 230.627 174.057 230.627 174.432C230.627 174.701 230.578 174.964 230.481 175.22C230.386 175.475 230.219 175.759 229.982 176.072C229.746 176.384 229.42 176.764 229.001 177.213L227.361 178.967V179.024H230.755V179.809H226.149Z" fill="black"/>
<rect x="247.769" y="153.825" width="45.1793" height="45.1793" stroke="#D5D4DF" stroke-width="0.717131"/>
<path d="M268.094 172.507V179.809H267.21V173.434H267.167L265.384 174.618V173.719L267.21 172.507H268.094ZM273.639 179.909C273.168 179.909 272.749 179.828 272.38 179.666C272.014 179.505 271.723 179.28 271.507 178.992C271.293 178.702 271.176 178.366 271.157 177.983H272.056C272.075 178.219 272.156 178.422 272.298 178.593C272.441 178.762 272.627 178.892 272.858 178.985C273.088 179.078 273.344 179.124 273.624 179.124C273.938 179.124 274.216 179.07 274.459 178.96C274.701 178.851 274.891 178.699 275.029 178.504C275.167 178.309 275.236 178.083 275.236 177.826C275.236 177.558 275.169 177.321 275.036 177.117C274.903 176.91 274.708 176.749 274.452 176.632C274.195 176.516 273.881 176.457 273.51 176.457H272.926V175.673H273.51C273.8 175.673 274.055 175.621 274.273 175.516C274.494 175.412 274.667 175.264 274.79 175.074C274.916 174.884 274.979 174.661 274.979 174.404C274.979 174.157 274.925 173.942 274.815 173.758C274.706 173.575 274.551 173.433 274.352 173.331C274.154 173.228 273.922 173.177 273.653 173.177C273.401 173.177 273.163 173.224 272.94 173.316C272.719 173.407 272.538 173.539 272.398 173.712C272.258 173.883 272.182 174.09 272.17 174.332H271.314C271.328 173.95 271.444 173.615 271.66 173.327C271.876 173.037 272.159 172.811 272.508 172.65C272.86 172.488 273.247 172.407 273.667 172.407C274.119 172.407 274.506 172.499 274.829 172.682C275.153 172.862 275.401 173.101 275.575 173.398C275.748 173.696 275.835 174.016 275.835 174.361C275.835 174.772 275.727 175.123 275.51 175.413C275.297 175.703 275.005 175.904 274.637 176.015V176.072C275.098 176.148 275.458 176.345 275.717 176.661C275.976 176.974 276.106 177.363 276.106 177.826C276.106 178.223 275.998 178.58 275.781 178.896C275.568 179.21 275.275 179.457 274.904 179.638C274.534 179.818 274.112 179.909 273.639 179.909Z" fill="black"/>
<rect x="292.948" y="153.825" width="45.1793" height="45.1793" stroke="#D5D4DF" stroke-width="0.717131"/>
<path d="M313.273 172.507V179.809H312.389V173.434H312.346L310.563 174.618V173.719L312.389 172.507H313.273ZM316.123 178.311V177.584L319.331 172.507H319.859V173.634H319.502L317.078 177.47V177.527H321.399V178.311H316.123ZM319.559 179.809V178.09V177.752V172.507H320.401V179.809H319.559Z" fill="black"/>
<rect x="21.8725" y="199.004" width="45.1793" height="45.1793" stroke="#D5D4DF" stroke-width="0.717131"/>
<path d="M42.1973 217.686V224.988H41.3131V218.613H41.2703L39.4877 219.797V218.899L41.3131 217.686H42.1973ZM47.6852 225.088C47.2668 225.088 46.8901 225.005 46.555 224.838C46.2198 224.672 45.9512 224.444 45.7492 224.154C45.5472 223.864 45.4367 223.533 45.4176 223.163H46.2733C46.3066 223.493 46.4563 223.766 46.7225 223.983C46.9911 224.197 47.312 224.304 47.6852 224.304C47.9846 224.304 48.2509 224.233 48.4838 224.093C48.7191 223.953 48.9033 223.76 49.0364 223.516C49.1719 223.268 49.2396 222.989 49.2396 222.678C49.2396 222.359 49.1695 222.075 49.0293 221.826C48.8914 221.574 48.7013 221.375 48.4588 221.23C48.2164 221.085 47.9395 221.012 47.6281 221.009C47.4047 221.007 47.1753 221.041 46.94 221.113C46.7047 221.182 46.511 221.271 46.3589 221.38L45.5317 221.28L45.9738 217.686H49.7673V218.471H46.7154L46.4587 220.624H46.5015C46.6512 220.505 46.839 220.407 47.0648 220.328C47.2906 220.25 47.5259 220.211 47.7707 220.211C48.2176 220.211 48.6157 220.318 48.9651 220.531C49.3169 220.743 49.5926 221.033 49.7922 221.401C49.9943 221.77 50.0953 222.19 50.0953 222.663C50.0953 223.129 49.9907 223.545 49.7815 223.911C49.5748 224.275 49.2895 224.563 48.9259 224.774C48.5622 224.983 48.1486 225.088 47.6852 225.088Z" fill="black"/>
<rect x="67.0518" y="199.004" width="45.1793" height="45.1793" stroke="#D5D4DF" stroke-width="0.717131"/>
<path d="M87.3766 217.686V224.988H86.4924V218.613H86.4496L84.667 219.797V218.899L86.4924 217.686H87.3766ZM92.9358 225.088C92.6363 225.083 92.3368 225.026 92.0373 224.917C91.7379 224.807 91.4645 224.623 91.2173 224.364C90.9701 224.103 90.7717 223.75 90.6219 223.305C90.4722 222.858 90.3973 222.297 90.3973 221.622C90.3973 220.976 90.4579 220.403 90.5791 219.904C90.7004 219.402 90.8762 218.981 91.1068 218.638C91.3374 218.294 91.6154 218.032 91.9411 217.854C92.2691 217.676 92.6387 217.587 93.0499 217.587C93.4587 217.587 93.8224 217.669 94.1409 217.833C94.4617 217.994 94.7232 218.22 94.9252 218.51C95.1273 218.8 95.258 219.134 95.3174 219.512H94.4475C94.3667 219.184 94.2098 218.912 93.9769 218.695C93.7439 218.479 93.4349 218.371 93.0499 218.371C92.4842 218.371 92.0385 218.617 91.7129 219.109C91.3896 219.601 91.2268 220.291 91.2245 221.18H91.2815C91.4146 220.978 91.5727 220.806 91.7557 220.663C91.9411 220.518 92.1455 220.407 92.3689 220.328C92.5923 220.25 92.8288 220.211 93.0784 220.211C93.4967 220.211 93.8794 220.315 94.2264 220.524C94.5734 220.731 94.8515 221.018 95.0607 221.384C95.2699 221.747 95.3744 222.164 95.3744 222.635C95.3744 223.087 95.2734 223.5 95.0714 223.876C94.8694 224.249 94.5853 224.546 94.2193 224.767C93.8556 224.986 93.4278 225.093 92.9358 225.088ZM92.9358 224.304C93.2353 224.304 93.5039 224.229 93.7415 224.079C93.9816 223.929 94.1706 223.728 94.3084 223.476C94.4487 223.224 94.5188 222.944 94.5188 222.635C94.5188 222.333 94.451 222.059 94.3156 221.811C94.1825 221.562 93.9982 221.363 93.7629 221.216C93.53 221.069 93.2638 220.995 92.9643 220.995C92.7385 220.995 92.5282 221.04 92.3333 221.13C92.1384 221.218 91.9672 221.34 91.8199 221.494C91.6749 221.649 91.5608 221.826 91.4776 222.025C91.3944 222.223 91.3528 222.431 91.3528 222.649C91.3528 222.939 91.4205 223.21 91.556 223.462C91.6939 223.714 91.8817 223.917 92.1193 224.072C92.3594 224.226 92.6316 224.304 92.9358 224.304Z" fill="black"/>
<rect x="112.231" y="199.004" width="45.1793" height="45.1793" stroke="#D5D4DF" stroke-width="0.717131"/>
<path d="M132.556 217.686V224.988H131.672V218.613H131.629L129.846 219.797V218.899L131.672 217.686H132.556ZM136.19 224.988L139.456 218.528V218.471H135.691V217.686H140.368V218.513L137.117 224.988H136.19Z" fill="black"/>
<rect x="157.41" y="199.004" width="45.1793" height="45.1793" fill="#45539D"/>
<rect x="157.41" y="199.004" width="45.1793" height="45.1793" stroke="#D5D4DF" stroke-width="0.717131"/>
<path d="M177.881 217.686V224.988H176.559V218.973H176.516L174.808 220.064V218.852L176.623 217.686H177.881ZM183.366 225.088C182.836 225.088 182.365 224.999 181.954 224.82C181.545 224.642 181.224 224.399 180.991 224.09C180.761 223.778 180.646 223.425 180.649 223.031C180.646 222.724 180.713 222.442 180.849 222.186C180.984 221.929 181.167 221.715 181.398 221.544C181.631 221.37 181.89 221.26 182.175 221.212V221.163C181.799 221.079 181.495 220.888 181.262 220.588C181.032 220.287 180.917 219.938 180.92 219.544C180.917 219.168 181.022 218.833 181.234 218.538C181.445 218.244 181.735 218.012 182.104 217.843C182.472 217.672 182.893 217.587 183.366 217.587C183.834 217.587 184.251 217.672 184.617 217.843C184.985 218.012 185.275 218.244 185.487 218.538C185.701 218.833 185.808 219.168 185.808 219.544C185.808 219.938 185.69 220.287 185.455 220.588C185.222 220.888 184.921 221.079 184.553 221.163V221.212C184.838 221.26 185.095 221.37 185.323 221.544C185.554 221.715 185.737 221.929 185.872 222.186C186.01 222.442 186.079 222.724 186.079 223.031C186.079 223.425 185.962 223.778 185.729 224.09C185.496 224.399 185.176 224.642 184.767 224.82C184.36 224.999 183.893 225.088 183.366 225.088ZM183.366 224.068C183.639 224.068 183.877 224.022 184.079 223.929C184.281 223.834 184.438 223.701 184.549 223.53C184.661 223.359 184.718 223.161 184.72 222.938C184.718 222.705 184.657 222.499 184.539 222.321C184.422 222.141 184.262 221.999 184.057 221.897C183.855 221.795 183.625 221.744 183.366 221.744C183.104 221.744 182.871 221.795 182.667 221.897C182.462 221.999 182.301 222.141 182.182 222.321C182.065 222.499 182.008 222.705 182.011 222.938C182.008 223.161 182.063 223.359 182.175 223.53C182.287 223.699 182.443 223.831 182.645 223.926C182.85 224.021 183.09 224.068 183.366 224.068ZM183.366 220.742C183.589 220.742 183.786 220.697 183.957 220.606C184.131 220.516 184.268 220.39 184.367 220.228C184.467 220.067 184.518 219.88 184.521 219.669C184.518 219.459 184.468 219.276 184.371 219.12C184.274 218.96 184.138 218.838 183.965 218.752C183.791 218.664 183.591 218.62 183.366 218.62C183.135 218.62 182.932 218.664 182.756 218.752C182.582 218.838 182.447 218.96 182.35 219.12C182.254 219.276 182.208 219.459 182.21 219.669C182.208 219.88 182.256 220.067 182.353 220.228C182.453 220.388 182.59 220.514 182.763 220.606C182.939 220.697 183.14 220.742 183.366 220.742Z" fill="white"/>
<rect x="202.59" y="199.004" width="45.1793" height="45.1793" stroke="#D5D4DF" stroke-width="0.717131"/>
<path d="M222.914 217.686V224.988H222.03V218.613H221.987L220.205 219.797V218.899L222.03 217.686H222.914ZM228.374 217.587C228.673 217.589 228.973 217.646 229.272 217.758C229.572 217.869 229.845 218.055 230.092 218.314C230.339 218.571 230.538 218.921 230.688 219.366C230.837 219.81 230.912 220.367 230.912 221.038C230.912 221.687 230.85 222.263 230.727 222.767C230.606 223.268 230.43 223.691 230.199 224.036C229.971 224.381 229.693 224.642 229.365 224.82C229.039 224.999 228.671 225.088 228.26 225.088C227.851 225.088 227.486 225.007 227.165 224.845C226.847 224.681 226.585 224.454 226.381 224.164C226.179 223.872 226.049 223.533 225.992 223.148H226.862C226.941 223.484 227.096 223.76 227.329 223.979C227.564 224.195 227.875 224.304 228.26 224.304C228.823 224.304 229.268 224.058 229.593 223.566C229.921 223.073 230.085 222.378 230.085 221.48H230.028C229.895 221.679 229.737 221.852 229.554 221.997C229.371 222.142 229.168 222.253 228.944 222.332C228.721 222.41 228.483 222.45 228.231 222.45C227.813 222.45 227.429 222.346 227.08 222.139C226.733 221.93 226.454 221.644 226.245 221.28C226.039 220.914 225.935 220.496 225.935 220.025C225.935 219.578 226.035 219.17 226.235 218.799C226.437 218.426 226.72 218.128 227.083 217.907C227.449 217.686 227.879 217.579 228.374 217.587ZM228.374 218.371C228.074 218.371 227.805 218.446 227.564 218.595C227.327 218.743 227.138 218.943 226.998 219.194C226.86 219.444 226.791 219.721 226.791 220.025C226.791 220.329 226.857 220.606 226.99 220.856C227.126 221.103 227.31 221.3 227.543 221.448C227.778 221.593 228.046 221.665 228.345 221.665C228.571 221.665 228.781 221.621 228.976 221.533C229.171 221.443 229.341 221.321 229.486 221.166C229.634 221.009 229.749 220.832 229.832 220.635C229.915 220.435 229.957 220.227 229.957 220.011C229.957 219.726 229.888 219.458 229.75 219.209C229.615 218.959 229.427 218.757 229.187 218.603C228.949 218.448 228.678 218.371 228.374 218.371Z" fill="black"/>
<rect x="247.769" y="199.004" width="45.1793" height="45.1793" stroke="#D5D4DF" stroke-width="0.717131"/>
<path d="M264.828 224.988V224.346L267.238 221.708C267.521 221.399 267.754 221.13 267.937 220.902C268.12 220.672 268.255 220.455 268.343 220.253C268.434 220.049 268.479 219.835 268.479 219.612C268.479 219.355 268.417 219.133 268.293 218.945C268.172 218.757 268.006 218.612 267.794 218.51C267.583 218.408 267.345 218.357 267.081 218.357C266.801 218.357 266.556 218.415 266.347 218.531C266.14 218.645 265.98 218.806 265.865 219.013C265.754 219.219 265.698 219.462 265.698 219.74H264.857C264.857 219.312 264.955 218.937 265.152 218.613C265.35 218.29 265.618 218.038 265.958 217.857C266.3 217.677 266.684 217.587 267.11 217.587C267.538 217.587 267.917 217.677 268.247 217.857C268.577 218.038 268.837 218.282 269.024 218.588C269.212 218.895 269.306 219.236 269.306 219.612C269.306 219.88 269.257 220.143 269.16 220.4C269.065 220.654 268.898 220.938 268.661 221.252C268.425 221.563 268.099 221.943 267.68 222.393L266.04 224.147V224.204H269.434V224.988H264.828ZM273.61 225.088C273.073 225.088 272.615 224.942 272.238 224.649C271.86 224.355 271.571 223.928 271.371 223.369C271.172 222.808 271.072 222.131 271.072 221.337C271.072 220.548 271.172 219.874 271.371 219.316C271.573 218.755 271.863 218.327 272.241 218.032C272.621 217.735 273.078 217.587 273.61 217.587C274.143 217.587 274.598 217.735 274.976 218.032C275.356 218.327 275.646 218.755 275.846 219.316C276.048 219.874 276.149 220.548 276.149 221.337C276.149 222.131 276.049 222.808 275.849 223.369C275.65 223.928 275.361 224.355 274.983 224.649C274.605 224.942 274.147 225.088 273.61 225.088ZM273.61 224.304C274.143 224.304 274.556 224.047 274.851 223.533C275.146 223.02 275.293 222.288 275.293 221.337C275.293 220.705 275.225 220.167 275.09 219.722C274.957 219.278 274.764 218.939 274.512 218.706C274.263 218.473 273.962 218.357 273.61 218.357C273.083 218.357 272.67 218.617 272.373 219.137C272.076 219.656 271.927 220.389 271.927 221.337C271.927 221.969 271.994 222.507 272.127 222.949C272.26 223.391 272.451 223.727 272.701 223.958C272.953 224.188 273.256 224.304 273.61 224.304Z" fill="black"/>
<rect x="292.948" y="199.004" width="45.1793" height="45.1793" stroke="#D5D4DF" stroke-width="0.717131"/>
<path d="M310.007 224.988V224.346L312.417 221.708C312.7 221.399 312.933 221.13 313.116 220.902C313.299 220.672 313.435 220.455 313.523 220.253C313.613 220.049 313.658 219.835 313.658 219.612C313.658 219.355 313.596 219.133 313.473 218.945C313.351 218.757 313.185 218.612 312.973 218.51C312.762 218.408 312.524 218.357 312.26 218.357C311.98 218.357 311.735 218.415 311.526 218.531C311.319 218.645 311.159 218.806 311.045 219.013C310.933 219.219 310.877 219.462 310.877 219.74H310.036C310.036 219.312 310.134 218.937 310.332 218.613C310.529 218.29 310.797 218.038 311.137 217.857C311.48 217.677 311.864 217.587 312.289 217.587C312.717 217.587 313.096 217.677 313.426 217.857C313.757 218.038 314.016 218.282 314.204 218.588C314.391 218.895 314.485 219.236 314.485 219.612C314.485 219.88 314.436 220.143 314.339 220.4C314.244 220.654 314.078 220.938 313.84 221.252C313.605 221.563 313.278 221.943 312.859 222.393L311.219 224.147V224.204H314.614V224.988H310.007ZM319.773 217.686V224.988H318.889V218.613H318.846L317.064 219.797V218.899L318.889 217.686H319.773Z" fill="black"/>
<rect x="21.8725" y="244.183" width="45.1793" height="45.1793" stroke="#D5D4DF" stroke-width="0.717131"/>
<path d="M38.9315 270.167V269.526L41.3416 266.887C41.6245 266.578 41.8574 266.31 42.0404 266.082C42.2234 265.851 42.3589 265.635 42.4469 265.433C42.5372 265.228 42.5823 265.014 42.5823 264.791C42.5823 264.534 42.5206 264.312 42.397 264.124C42.2757 263.936 42.1094 263.791 41.8978 263.689C41.6863 263.587 41.4486 263.536 41.1848 263.536C40.9043 263.536 40.6595 263.594 40.4503 263.711C40.2435 263.825 40.0831 263.985 39.969 264.192C39.8573 264.399 39.8014 264.641 39.8014 264.919H38.96C38.96 264.491 39.0587 264.116 39.2559 263.793C39.4532 263.469 39.7218 263.217 40.0617 263.037C40.404 262.856 40.7878 262.766 41.2133 262.766C41.6411 262.766 42.0202 262.856 42.3506 263.037C42.681 263.217 42.9401 263.461 43.1278 263.768C43.3156 264.074 43.4095 264.415 43.4095 264.791C43.4095 265.059 43.3608 265.322 43.2633 265.579C43.1682 265.833 43.0019 266.117 42.7642 266.431C42.5289 266.742 42.2021 267.123 41.7837 267.572L40.1437 269.326V269.383H43.5378V270.167H38.9315ZM45.4319 270.167V269.526L47.842 266.887C48.1249 266.578 48.3578 266.31 48.5408 266.082C48.7238 265.851 48.8593 265.635 48.9473 265.433C49.0376 265.228 49.0828 265.014 49.0828 264.791C49.0828 264.534 49.021 264.312 48.8974 264.124C48.7761 263.936 48.6098 263.791 48.3982 263.689C48.1867 263.587 47.949 263.536 47.6852 263.536C47.4047 263.536 47.1599 263.594 46.9507 263.711C46.7439 263.825 46.5835 263.985 46.4694 264.192C46.3577 264.399 46.3018 264.641 46.3018 264.919H45.4604C45.4604 264.491 45.5591 264.116 45.7563 263.793C45.9536 263.469 46.2222 263.217 46.5621 263.037C46.9044 262.856 47.2882 262.766 47.7137 262.766C48.1415 262.766 48.5206 262.856 48.851 263.037C49.1814 263.217 49.4405 263.461 49.6282 263.768C49.816 264.074 49.9099 264.415 49.9099 264.791C49.9099 265.059 49.8612 265.322 49.7637 265.579C49.6686 265.833 49.5023 266.117 49.2646 266.431C49.0293 266.742 48.7025 267.123 48.2841 267.572L46.6441 269.326V269.383H50.0382V270.167H45.4319Z" fill="black"/>
<rect x="67.0518" y="244.183" width="45.1793" height="45.1793" stroke="#D5D4DF" stroke-width="0.717131"/>
<path d="M84.1108 270.167V269.526L86.521 266.887C86.8038 266.578 87.0367 266.31 87.2197 266.082C87.4028 265.851 87.5382 265.635 87.6262 265.433C87.7165 265.228 87.7617 265.014 87.7617 264.791C87.7617 264.534 87.6999 264.312 87.5763 264.124C87.4551 263.936 87.2887 263.791 87.0771 263.689C86.8656 263.587 86.6279 263.536 86.3641 263.536C86.0836 263.536 85.8388 263.594 85.6296 263.711C85.4228 263.825 85.2624 263.985 85.1483 264.192C85.0366 264.399 84.9807 264.641 84.9807 264.919H84.1393C84.1393 264.491 84.238 264.116 84.4353 263.793C84.6325 263.469 84.9011 263.217 85.241 263.037C85.5833 262.856 85.9671 262.766 86.3926 262.766C86.8204 262.766 87.1995 262.856 87.5299 263.037C87.8603 263.217 88.1194 263.461 88.3072 263.768C88.4949 264.074 88.5888 264.415 88.5888 264.791C88.5888 265.059 88.5401 265.322 88.4426 265.579C88.3476 265.833 88.1812 266.117 87.9435 266.431C87.7082 266.742 87.3814 267.123 86.963 267.572L85.323 269.326V269.383H88.7172V270.167H84.1108ZM92.9215 270.267C92.4509 270.267 92.0314 270.186 91.663 270.025C91.2969 269.863 91.0058 269.638 90.7895 269.351C90.5756 269.061 90.4591 268.725 90.4401 268.342H91.3385C91.3576 268.577 91.4384 268.78 91.581 268.952C91.7236 269.12 91.9102 269.251 92.1407 269.344C92.3713 269.436 92.6268 269.483 92.9073 269.483C93.221 269.483 93.4991 269.428 93.7415 269.319C93.984 269.209 94.1741 269.057 94.312 268.862C94.4498 268.668 94.5188 268.442 94.5188 268.185C94.5188 267.916 94.4522 267.68 94.3191 267.476C94.186 267.269 93.9911 267.107 93.7344 266.991C93.4777 266.874 93.164 266.816 92.7932 266.816H92.2085V266.032H92.7932C93.0832 266.032 93.3375 265.979 93.5561 265.875C93.7772 265.77 93.9495 265.623 94.0731 265.433C94.1991 265.242 94.2621 265.019 94.2621 264.762C94.2621 264.515 94.2074 264.3 94.0981 264.117C93.9887 263.934 93.8342 263.791 93.6346 263.689C93.4373 263.587 93.2044 263.536 92.9358 263.536C92.6838 263.536 92.4462 263.582 92.2227 263.675C92.0017 263.765 91.821 263.897 91.6808 264.071C91.5406 264.242 91.4645 264.449 91.4526 264.691H90.597C90.6112 264.308 90.7265 263.973 90.9428 263.686C91.1591 263.396 91.4419 263.17 91.7913 263.008C92.1431 262.847 92.5293 262.766 92.9501 262.766C93.4017 262.766 93.7891 262.857 94.1123 263.04C94.4356 263.221 94.684 263.46 94.8575 263.757C95.031 264.054 95.1177 264.375 95.1177 264.72C95.1177 265.131 95.0096 265.481 94.7933 265.771C94.5794 266.061 94.2882 266.262 93.9198 266.374V266.431C94.3809 266.507 94.741 266.703 95.0001 267.019C95.2592 267.333 95.3887 267.722 95.3887 268.185C95.3887 268.582 95.2806 268.939 95.0643 269.255C94.8503 269.568 94.558 269.816 94.1872 269.996C93.8164 270.177 93.3945 270.267 92.9215 270.267Z" fill="black"/>
<rect x="112.231" y="244.183" width="45.1793" height="45.1793" stroke="#D5D4DF" stroke-width="0.717131"/>
<path d="M129.29 270.167V269.526L131.7 266.887C131.983 266.578 132.216 266.31 132.399 266.082C132.582 265.851 132.717 265.635 132.805 265.433C132.896 265.228 132.941 265.014 132.941 264.791C132.941 264.534 132.879 264.312 132.755 264.124C132.634 263.936 132.468 263.791 132.256 263.689C132.045 263.587 131.807 263.536 131.543 263.536C131.263 263.536 131.018 263.594 130.809 263.711C130.602 263.825 130.442 263.985 130.328 264.192C130.216 264.399 130.16 264.641 130.16 264.919H129.319C129.319 264.491 129.417 264.116 129.614 263.793C129.812 263.469 130.08 263.217 130.42 263.037C130.762 262.856 131.146 262.766 131.572 262.766C132 262.766 132.379 262.856 132.709 263.037C133.04 263.217 133.299 263.461 133.486 263.768C133.674 264.074 133.768 264.415 133.768 264.791C133.768 265.059 133.719 265.322 133.622 265.579C133.527 265.833 133.36 266.117 133.123 266.431C132.887 266.742 132.561 267.123 132.142 267.572L130.502 269.326V269.383H133.896V270.167H129.29ZM135.405 268.67V267.943L138.614 262.866H139.142V263.992H138.785L136.361 267.829V267.886H140.682V268.67H135.405ZM138.842 270.167V268.449V268.11V262.866H139.684V270.167H138.842Z" fill="black"/>
<rect x="157.41" y="244.183" width="45.1793" height="45.1793" stroke="#D5D4DF" stroke-width="0.717131"/>
<path d="M174.469 270.167V269.526L176.879 266.887C177.162 266.578 177.395 266.31 177.578 266.082C177.761 265.851 177.897 265.635 177.985 265.433C178.075 265.228 178.12 265.014 178.12 264.791C178.12 264.534 178.058 264.312 177.935 264.124C177.814 263.936 177.647 263.791 177.436 263.689C177.224 263.587 176.986 263.536 176.723 263.536C176.442 263.536 176.197 263.594 175.988 263.711C175.781 263.825 175.621 263.985 175.507 264.192C175.395 264.399 175.339 264.641 175.339 264.919H174.498C174.498 264.491 174.597 264.116 174.794 263.793C174.991 263.469 175.26 263.217 175.6 263.037C175.942 262.856 176.326 262.766 176.751 262.766C177.179 262.766 177.558 262.856 177.888 263.037C178.219 263.217 178.478 263.461 178.666 263.768C178.853 264.074 178.947 264.415 178.947 264.791C178.947 265.059 178.899 265.322 178.801 265.579C178.706 265.833 178.54 266.117 178.302 266.431C178.067 266.742 177.74 267.123 177.322 267.572L175.682 269.326V269.383H179.076V270.167H174.469ZM183.223 270.267C182.805 270.267 182.428 270.184 182.093 270.018C181.758 269.851 181.489 269.623 181.287 269.333C181.085 269.043 180.974 268.713 180.955 268.342H181.811C181.844 268.672 181.994 268.946 182.26 269.162C182.529 269.376 182.85 269.483 183.223 269.483C183.522 269.483 183.789 269.413 184.022 269.272C184.257 269.132 184.441 268.94 184.574 268.695C184.71 268.448 184.777 268.168 184.777 267.857C184.777 267.539 184.707 267.254 184.567 267.005C184.429 266.753 184.239 266.555 183.997 266.41C183.754 266.265 183.477 266.191 183.166 266.188C182.943 266.186 182.713 266.221 182.478 266.292C182.243 266.361 182.049 266.45 181.897 266.559L181.07 266.459L181.512 262.866H185.305V263.65H182.253L181.997 265.803H182.039C182.189 265.685 182.377 265.586 182.603 265.508C182.828 265.429 183.064 265.39 183.309 265.39C183.755 265.39 184.154 265.497 184.503 265.711C184.855 265.922 185.13 266.212 185.33 266.581C185.532 266.949 185.633 267.37 185.633 267.843C185.633 268.309 185.529 268.725 185.319 269.091C185.113 269.454 184.827 269.742 184.464 269.953C184.1 270.163 183.686 270.267 183.223 270.267Z" fill="black"/>
<rect x="202.59" y="244.183" width="45.1793" height="45.1793" stroke="#D5D4DF" stroke-width="0.717131"/>
<path d="M219.649 270.167V269.526L222.059 266.887C222.342 266.578 222.575 266.31 222.758 266.082C222.941 265.851 223.076 265.635 223.164 265.433C223.254 265.228 223.3 265.014 223.3 264.791C223.3 264.534 223.238 264.312 223.114 264.124C222.993 263.936 222.827 263.791 222.615 263.689C222.403 263.587 222.166 263.536 221.902 263.536C221.621 263.536 221.377 263.594 221.167 263.711C220.961 263.825 220.8 263.985 220.686 264.192C220.574 264.399 220.519 264.641 220.519 264.919H219.677C219.677 264.491 219.776 264.116 219.973 263.793C220.17 263.469 220.439 263.217 220.779 263.037C221.121 262.856 221.505 262.766 221.93 262.766C222.358 262.766 222.737 262.856 223.068 263.037C223.398 263.217 223.657 263.461 223.845 263.768C224.033 264.074 224.127 264.415 224.127 264.791C224.127 265.059 224.078 265.322 223.98 265.579C223.885 265.833 223.719 266.117 223.481 266.431C223.246 266.742 222.919 267.123 222.501 267.572L220.861 269.326V269.383H224.255V270.167H219.649ZM228.474 270.267C228.174 270.262 227.875 270.205 227.575 270.096C227.276 269.987 227.002 269.802 226.755 269.543C226.508 269.282 226.31 268.929 226.16 268.485C226.01 268.038 225.935 267.477 225.935 266.802C225.935 266.155 225.996 265.582 226.117 265.083C226.238 264.582 226.414 264.16 226.645 263.818C226.875 263.473 227.153 263.211 227.479 263.033C227.807 262.855 228.177 262.766 228.588 262.766C228.997 262.766 229.36 262.848 229.679 263.012C230 263.173 230.261 263.399 230.463 263.689C230.665 263.979 230.796 264.313 230.855 264.691H229.985C229.904 264.363 229.748 264.091 229.515 263.875C229.282 263.658 228.973 263.55 228.588 263.55C228.022 263.55 227.576 263.796 227.251 264.288C226.927 264.78 226.765 265.471 226.762 266.36H226.819C226.952 266.158 227.111 265.985 227.294 265.843C227.479 265.698 227.683 265.586 227.907 265.508C228.13 265.429 228.367 265.39 228.616 265.39C229.035 265.39 229.417 265.494 229.764 265.704C230.111 265.91 230.389 266.197 230.599 266.563C230.808 266.926 230.912 267.344 230.912 267.814C230.912 268.266 230.811 268.679 230.609 269.055C230.407 269.428 230.123 269.725 229.757 269.946C229.393 270.165 228.966 270.272 228.474 270.267ZM228.474 269.483C228.773 269.483 229.042 269.408 229.279 269.258C229.519 269.108 229.708 268.908 229.846 268.656C229.986 268.404 230.057 268.123 230.057 267.814C230.057 267.512 229.989 267.238 229.853 266.991C229.72 266.741 229.536 266.543 229.301 266.395C229.068 266.248 228.802 266.174 228.502 266.174C228.276 266.174 228.066 266.219 227.871 266.31C227.676 266.398 227.505 266.519 227.358 266.673C227.213 266.828 227.099 267.005 227.015 267.205C226.932 267.402 226.891 267.61 226.891 267.829C226.891 268.118 226.958 268.389 227.094 268.641C227.232 268.893 227.419 269.097 227.657 269.251C227.897 269.406 228.169 269.483 228.474 269.483Z" fill="black"/>
<rect x="247.769" y="244.183" width="45.1793" height="45.1793" stroke="#D5D4DF" stroke-width="0.717131"/>
<path d="M264.828 270.167V269.526L267.238 266.887C267.521 266.578 267.754 266.31 267.937 266.082C268.12 265.851 268.255 265.635 268.343 265.433C268.434 265.228 268.479 265.014 268.479 264.791C268.479 264.534 268.417 264.312 268.293 264.124C268.172 263.936 268.006 263.791 267.794 263.689C267.583 263.587 267.345 263.536 267.081 263.536C266.801 263.536 266.556 263.594 266.347 263.711C266.14 263.825 265.98 263.985 265.865 264.192C265.754 264.399 265.698 264.641 265.698 264.919H264.857C264.857 264.491 264.955 264.116 265.152 263.793C265.35 263.469 265.618 263.217 265.958 263.037C266.3 262.856 266.684 262.766 267.11 262.766C267.538 262.766 267.917 262.856 268.247 263.037C268.577 263.217 268.837 263.461 269.024 263.768C269.212 264.074 269.306 264.415 269.306 264.791C269.306 265.059 269.257 265.322 269.16 265.579C269.065 265.833 268.898 266.117 268.661 266.431C268.425 266.742 268.099 267.123 267.68 267.572L266.04 269.326V269.383H269.434V270.167H264.828ZM271.728 270.167L274.993 263.707V263.65H271.229V262.866H275.906V263.693L272.655 270.167H271.728Z" fill="black"/>
<rect x="292.948" y="244.183" width="45.1793" height="45.1793" stroke="#D5D4DF" stroke-width="0.717131"/>
<path d="M310.007 270.167V269.526L312.417 266.887C312.7 266.578 312.933 266.31 313.116 266.082C313.299 265.851 313.435 265.635 313.523 265.433C313.613 265.228 313.658 265.014 313.658 264.791C313.658 264.534 313.596 264.312 313.473 264.124C313.351 263.936 313.185 263.791 312.973 263.689C312.762 263.587 312.524 263.536 312.26 263.536C311.98 263.536 311.735 263.594 311.526 263.711C311.319 263.825 311.159 263.985 311.045 264.192C310.933 264.399 310.877 264.641 310.877 264.919H310.036C310.036 264.491 310.134 264.116 310.332 263.793C310.529 263.469 310.797 263.217 311.137 263.037C311.48 262.856 311.864 262.766 312.289 262.766C312.717 262.766 313.096 262.856 313.426 263.037C313.757 263.217 314.016 263.461 314.204 263.768C314.391 264.074 314.485 264.415 314.485 264.791C314.485 265.059 314.436 265.322 314.339 265.579C314.244 265.833 314.078 266.117 313.84 266.431C313.605 266.742 313.278 267.123 312.859 267.572L311.219 269.326V269.383H314.614V270.167H310.007ZM318.789 270.267C318.3 270.267 317.867 270.18 317.492 270.007C317.118 269.831 316.827 269.59 316.618 269.283C316.409 268.974 316.306 268.622 316.308 268.228C316.306 267.919 316.366 267.634 316.49 267.372C316.613 267.108 316.782 266.888 316.996 266.713C317.212 266.534 317.454 266.421 317.72 266.374V266.331C317.37 266.241 317.092 266.045 316.886 265.743C316.679 265.439 316.577 265.093 316.579 264.705C316.577 264.335 316.67 264.003 316.861 263.711C317.051 263.418 317.312 263.188 317.645 263.019C317.98 262.85 318.362 262.766 318.789 262.766C319.212 262.766 319.59 262.85 319.923 263.019C320.256 263.188 320.517 263.418 320.707 263.711C320.9 264.003 320.997 264.335 321 264.705C320.997 265.093 320.892 265.439 320.683 265.743C320.476 266.045 320.201 266.241 319.859 266.331V266.374C320.123 266.421 320.36 266.534 320.572 266.713C320.784 266.888 320.952 267.108 321.078 267.372C321.204 267.634 321.268 267.919 321.271 268.228C321.268 268.622 321.161 268.974 320.95 269.283C320.741 269.59 320.45 269.831 320.076 270.007C319.706 270.18 319.277 270.267 318.789 270.267ZM318.789 269.483C319.12 269.483 319.405 269.429 319.645 269.322C319.885 269.215 320.07 269.064 320.201 268.87C320.332 268.675 320.398 268.446 320.401 268.185C320.398 267.909 320.327 267.666 320.187 267.454C320.047 267.243 319.855 267.076 319.613 266.955C319.373 266.834 319.098 266.773 318.789 266.773C318.478 266.773 318.2 266.834 317.955 266.955C317.713 267.076 317.521 267.243 317.381 267.454C317.243 267.666 317.175 267.909 317.178 268.185C317.175 268.446 317.238 268.675 317.367 268.87C317.498 269.064 317.684 269.215 317.927 269.322C318.169 269.429 318.457 269.483 318.789 269.483ZM318.789 266.017C319.051 266.017 319.283 265.965 319.485 265.86C319.689 265.756 319.849 265.61 319.966 265.422C320.082 265.234 320.142 265.014 320.144 264.762C320.142 264.515 320.084 264.3 319.969 264.117C319.855 263.932 319.697 263.789 319.495 263.689C319.293 263.587 319.058 263.536 318.789 263.536C318.516 263.536 318.277 263.587 318.073 263.689C317.868 263.789 317.71 263.932 317.599 264.117C317.487 264.3 317.432 264.515 317.435 264.762C317.432 265.014 317.488 265.234 317.602 265.422C317.719 265.61 317.879 265.756 318.083 265.86C318.288 265.965 318.523 266.017 318.789 266.017Z" fill="black"/>
<rect x="21.8725" y="289.363" width="45.1793" height="45.1793" stroke="#D5D4DF" stroke-width="0.717131"/>
<path d="M38.9315 315.347V314.705L41.3416 312.067C41.6245 311.758 41.8574 311.489 42.0404 311.261C42.2234 311.03 42.3589 310.814 42.4469 310.612C42.5372 310.408 42.5823 310.194 42.5823 309.97C42.5823 309.713 42.5206 309.491 42.397 309.303C42.2757 309.116 42.1094 308.971 41.8978 308.869C41.6863 308.766 41.4486 308.715 41.1848 308.715C40.9043 308.715 40.6595 308.773 40.4503 308.89C40.2435 309.004 40.0831 309.164 39.969 309.371C39.8573 309.578 39.8014 309.82 39.8014 310.099H38.96C38.96 309.671 39.0587 309.295 39.2559 308.972C39.4532 308.649 39.7218 308.397 40.0617 308.216C40.404 308.035 40.7878 307.945 41.2133 307.945C41.6411 307.945 42.0202 308.035 42.3506 308.216C42.681 308.397 42.9401 308.64 43.1278 308.947C43.3156 309.254 43.4095 309.595 43.4095 309.97C43.4095 310.239 43.3608 310.501 43.2633 310.758C43.1682 311.012 43.0019 311.296 42.7642 311.61C42.5289 311.922 42.2021 312.302 41.7837 312.751L40.1437 314.505V314.562H43.5378V315.347H38.9315ZM47.6566 307.945C47.9561 307.947 48.2556 308.005 48.5551 308.116C48.8546 308.228 49.1279 308.413 49.3751 308.672C49.6223 308.929 49.8208 309.28 49.9705 309.724C50.1203 310.169 50.1951 310.726 50.1951 311.396C50.1951 312.045 50.1333 312.622 50.0097 313.125C49.8885 313.627 49.7126 314.05 49.4821 314.395C49.2539 314.739 48.9758 315.001 48.6478 315.179C48.3222 315.357 47.9537 315.446 47.5426 315.446C47.1337 315.446 46.7689 315.366 46.448 315.204C46.1295 315.04 45.8681 314.813 45.6636 314.523C45.4616 314.231 45.3321 313.892 45.275 313.507H46.145C46.2234 313.842 46.3791 314.119 46.612 314.338C46.8473 314.554 47.1575 314.662 47.5426 314.662C48.1059 314.662 48.5503 314.416 48.876 313.924C49.204 313.432 49.368 312.737 49.368 311.838H49.3109C49.1778 312.038 49.0198 312.21 48.8367 312.355C48.6537 312.5 48.4505 312.612 48.2271 312.69C48.0037 312.769 47.766 312.808 47.514 312.808C47.0957 312.808 46.7118 312.705 46.3624 312.498C46.0154 312.289 45.7373 312.002 45.5282 311.639C45.3214 311.273 45.218 310.854 45.218 310.384C45.218 309.937 45.3178 309.528 45.5175 309.157C45.7195 308.784 46.0023 308.487 46.366 308.266C46.732 308.045 47.1623 307.938 47.6566 307.945ZM47.6566 308.729C47.3572 308.729 47.0874 308.804 46.8473 308.954C46.6096 309.101 46.4207 309.301 46.2804 309.553C46.1426 309.803 46.0737 310.08 46.0737 310.384C46.0737 310.688 46.1402 310.965 46.2733 311.214C46.4088 311.462 46.593 311.659 46.8259 311.806C47.0612 311.951 47.3286 312.024 47.6281 312.024C47.8539 312.024 48.0643 311.98 48.2592 311.892C48.4541 311.802 48.624 311.679 48.769 311.525C48.9164 311.368 49.0317 311.191 49.1148 310.993C49.198 310.794 49.2396 310.586 49.2396 310.369C49.2396 310.084 49.1707 309.817 49.0328 309.567C48.8974 309.318 48.7096 309.116 48.4695 308.961C48.2318 308.807 47.9609 308.729 47.6566 308.729Z" fill="black"/>
<rect x="67.0518" y="289.363" width="45.1793" height="45.1793" stroke="#D5D4DF" stroke-width="0.717131"/>
<path d="M86.4211 315.446C85.9505 315.446 85.531 315.366 85.1626 315.204C84.7965 315.042 84.5054 314.818 84.2891 314.53C84.0752 314.24 83.9587 313.904 83.9397 313.521H84.8381C84.8572 313.757 84.938 313.96 85.0806 314.131C85.2232 314.3 85.4098 314.43 85.6403 314.523C85.8709 314.616 86.1264 314.662 86.4069 314.662C86.7206 314.662 86.9987 314.607 87.2411 314.498C87.4836 314.389 87.6737 314.237 87.8116 314.042C87.9494 313.847 88.0184 313.621 88.0184 313.364C88.0184 313.096 87.9518 312.859 87.8187 312.655C87.6856 312.448 87.4907 312.286 87.234 312.17C86.9773 312.053 86.6636 311.995 86.2928 311.995H85.7081V311.211H86.2928C86.5827 311.211 86.8371 311.159 87.0557 311.054C87.2768 310.949 87.4491 310.802 87.5727 310.612C87.6987 310.422 87.7617 310.198 87.7617 309.942C87.7617 309.694 87.707 309.479 87.5977 309.296C87.4883 309.113 87.3338 308.971 87.1342 308.869C86.9369 308.766 86.704 308.715 86.4354 308.715C86.1834 308.715 85.9458 308.762 85.7223 308.854C85.5013 308.945 85.3206 309.076 85.1804 309.25C85.0402 309.421 84.9641 309.628 84.9522 309.87H84.0966C84.1108 309.488 84.2261 309.153 84.4424 308.865C84.6587 308.575 84.9415 308.349 85.2909 308.188C85.6427 308.026 86.0289 307.945 86.4496 307.945C86.9012 307.945 87.2887 308.037 87.6119 308.22C87.9352 308.4 88.1836 308.639 88.3571 308.936C88.5306 309.233 88.6173 309.554 88.6173 309.899C88.6173 310.31 88.5092 310.661 88.2929 310.951C88.079 311.241 87.7878 311.441 87.4194 311.553V311.61C87.8805 311.686 88.2406 311.882 88.4997 312.198C88.7588 312.512 88.8883 312.901 88.8883 313.364C88.8883 313.761 88.7802 314.118 88.5639 314.434C88.3499 314.748 88.0576 314.995 87.6868 315.175C87.316 315.356 86.8941 315.446 86.4211 315.446ZM92.893 315.446C92.3558 315.446 91.8983 315.3 91.5204 315.008C91.1425 314.713 90.8537 314.287 90.654 313.728C90.4544 313.167 90.3545 312.49 90.3545 311.696C90.3545 310.907 90.4544 310.233 90.654 309.674C90.856 309.113 91.146 308.685 91.5239 308.391C91.9042 308.094 92.3606 307.945 92.893 307.945C93.4254 307.945 93.8806 308.094 94.2585 308.391C94.6388 308.685 94.9288 309.113 95.1284 309.674C95.3305 310.233 95.4315 310.907 95.4315 311.696C95.4315 312.49 95.3317 313.167 95.132 313.728C94.9323 314.287 94.6436 314.713 94.2656 315.008C93.8877 315.3 93.4302 315.446 92.893 315.446ZM92.893 314.662C93.4254 314.662 93.839 314.405 94.1337 313.892C94.4285 313.379 94.5758 312.647 94.5758 311.696C94.5758 311.064 94.5081 310.525 94.3726 310.081C94.2395 309.636 94.047 309.298 93.795 309.065C93.5455 308.832 93.2448 308.715 92.893 308.715C92.3653 308.715 91.953 308.975 91.6559 309.496C91.3587 310.014 91.2102 310.747 91.2102 311.696C91.2102 312.328 91.2767 312.865 91.4098 313.307C91.543 313.749 91.7343 314.086 91.9839 314.316C92.2358 314.547 92.5389 314.662 92.893 314.662Z" fill="black"/>
<rect x="112.231" y="289.363" width="45.1793" height="45.1793" stroke="#D5D4DF" stroke-width="0.717131"/>
<path d="M131.6 315.446C131.13 315.446 130.71 315.366 130.342 315.204C129.976 315.042 129.685 314.818 129.468 314.53C129.254 314.24 129.138 313.904 129.119 313.521H130.017C130.036 313.757 130.117 313.96 130.26 314.131C130.402 314.3 130.589 314.43 130.82 314.523C131.05 314.616 131.306 314.662 131.586 314.662C131.9 314.662 132.178 314.607 132.42 314.498C132.663 314.389 132.853 314.237 132.991 314.042C133.129 313.847 133.198 313.621 133.198 313.364C133.198 313.096 133.131 312.859 132.998 312.655C132.865 312.448 132.67 312.286 132.413 312.17C132.157 312.053 131.843 311.995 131.472 311.995H130.887V311.211H131.472C131.762 311.211 132.016 311.159 132.235 311.054C132.456 310.949 132.628 310.802 132.752 310.612C132.878 310.422 132.941 310.198 132.941 309.942C132.941 309.694 132.886 309.479 132.777 309.296C132.668 309.113 132.513 308.971 132.313 308.869C132.116 308.766 131.883 308.715 131.615 308.715C131.363 308.715 131.125 308.762 130.902 308.854C130.68 308.945 130.5 309.076 130.36 309.25C130.219 309.421 130.143 309.628 130.131 309.87H129.276C129.29 309.488 129.405 309.153 129.622 308.865C129.838 308.575 130.121 308.349 130.47 308.188C130.822 308.026 131.208 307.945 131.629 307.945C132.08 307.945 132.468 308.037 132.791 308.22C133.114 308.4 133.363 308.639 133.536 308.936C133.71 309.233 133.797 309.554 133.797 309.899C133.797 310.31 133.688 310.661 133.472 310.951C133.258 311.241 132.967 311.441 132.599 311.553V311.61C133.06 311.686 133.42 311.882 133.679 312.198C133.938 312.512 134.067 312.901 134.067 313.364C134.067 313.761 133.959 314.118 133.743 314.434C133.529 314.748 133.237 314.995 132.866 315.175C132.495 315.356 132.073 315.446 131.6 315.446ZM139.056 308.045V315.347H138.172V308.972H138.129L136.347 310.156V309.257L138.172 308.045H139.056Z" fill="black"/>
<rect x="157.41" y="289.363" width="45.1793" height="45.1793" fill="#F2F3F7"/>
<rect x="157.41" y="289.363" width="45.1793" height="45.1793" stroke="#D5D4DF" stroke-width="0.717131"/>
<path d="M180.985 308.045V315.347H180.101V308.972H180.058L178.276 310.156V309.257L180.101 308.045H180.985Z" fill="#A8A8A8"/>
<rect x="202.59" y="289.363" width="45.1793" height="45.1793" fill="#F2F3F7"/>
<rect x="202.59" y="289.363" width="45.1793" height="45.1793" stroke="#D5D4DF" stroke-width="0.717131"/>
<path d="M222.899 315.347V314.705L225.309 312.067C225.592 311.758 225.825 311.489 226.008 311.261C226.191 311.03 226.326 310.814 226.414 310.612C226.505 310.408 226.55 310.194 226.55 309.97C226.55 309.713 226.488 309.491 226.364 309.303C226.243 309.116 226.077 308.971 225.865 308.869C225.654 308.766 225.416 308.715 225.152 308.715C224.872 308.715 224.627 308.773 224.418 308.89C224.211 309.004 224.05 309.164 223.936 309.371C223.825 309.578 223.769 309.82 223.769 310.099H222.927C222.927 309.671 223.026 309.295 223.223 308.972C223.421 308.649 223.689 308.397 224.029 308.216C224.371 308.035 224.755 307.945 225.181 307.945C225.608 307.945 225.988 308.035 226.318 308.216C226.648 308.397 226.907 308.64 227.095 308.947C227.283 309.254 227.377 309.595 227.377 309.97C227.377 310.239 227.328 310.501 227.231 310.758C227.136 311.012 226.969 311.296 226.732 311.61C226.496 311.922 226.169 312.302 225.751 312.751L224.111 314.505V314.562H227.505V315.347H222.899Z" fill="#A8A8A8"/>
<rect x="247.769" y="289.363" width="45.1793" height="45.1793" fill="#F2F3F7"/>
<rect x="247.769" y="289.363" width="45.1793" height="45.1793" stroke="#D5D4DF" stroke-width="0.717131"/>
<path d="M270.388 315.446C269.918 315.446 269.498 315.366 269.13 315.204C268.764 315.042 268.473 314.818 268.256 314.53C268.043 314.24 267.926 313.904 267.907 313.521H268.806C268.825 313.757 268.905 313.96 269.048 314.131C269.191 314.3 269.377 314.43 269.608 314.523C269.838 314.616 270.094 314.662 270.374 314.662C270.688 314.662 270.966 314.607 271.209 314.498C271.451 314.389 271.641 314.237 271.779 314.042C271.917 313.847 271.986 313.621 271.986 313.364C271.986 313.096 271.919 312.859 271.786 312.655C271.653 312.448 271.458 312.286 271.201 312.17C270.945 312.053 270.631 311.995 270.26 311.995H269.675V311.211H270.26C270.55 311.211 270.804 311.159 271.023 311.054C271.244 310.949 271.416 310.802 271.54 310.612C271.666 310.422 271.729 310.198 271.729 309.942C271.729 309.694 271.674 309.479 271.565 309.296C271.456 309.113 271.301 308.971 271.102 308.869C270.904 308.766 270.671 308.715 270.403 308.715C270.151 308.715 269.913 308.762 269.69 308.854C269.469 308.945 269.288 309.076 269.148 309.25C269.008 309.421 268.931 309.628 268.92 309.87H268.064C268.078 309.488 268.193 309.153 268.41 308.865C268.626 308.575 268.909 308.349 269.258 308.188C269.61 308.026 269.996 307.945 270.417 307.945C270.869 307.945 271.256 308.037 271.579 308.22C271.903 308.4 272.151 308.639 272.324 308.936C272.498 309.233 272.585 309.554 272.585 309.899C272.585 310.31 272.477 310.661 272.26 310.951C272.046 311.241 271.755 311.441 271.387 311.553V311.61C271.848 311.686 272.208 311.882 272.467 312.198C272.726 312.512 272.856 312.901 272.856 313.364C272.856 313.761 272.748 314.118 272.531 314.434C272.317 314.748 272.025 314.995 271.654 315.175C271.283 315.356 270.861 315.446 270.388 315.446Z" fill="#A8A8A8"/>
<rect x="292.948" y="289.363" width="45.1793" height="45.1793" fill="#F2F3F7"/>
<rect x="292.948" y="289.363" width="45.1793" height="45.1793" stroke="#D5D4DF" stroke-width="0.717131"/>
<path d="M312.872 313.849V313.122L316.081 308.045H316.609V309.172H316.252L313.828 313.008V313.065H318.149V313.849H312.872ZM316.309 315.347V313.628V313.289V308.045H317.151V315.347H316.309Z" fill="#A8A8A8"/>
</g>
<rect width="360" height="100" transform="translate(0 128)" fill="#565656" fill-opacity="0.81"/>
<path d="M35.7312 169.545H38.7227L43.2823 177.48H43.4698L48.0295 169.545H51.021L44.6886 180.148V187H42.0636V180.148L35.7312 169.545ZM56.6609 187.264C55.4336 187.264 54.3626 186.983 53.4478 186.42C52.533 185.858 51.8228 185.071 51.3171 184.06C50.8114 183.048 50.5586 181.866 50.5586 180.514C50.5586 179.156 50.8114 177.969 51.3171 176.952C51.8228 175.935 52.533 175.145 53.4478 174.582C54.3626 174.02 55.4336 173.739 56.6609 173.739C57.8881 173.739 58.9592 174.02 59.8739 174.582C60.7887 175.145 61.4989 175.935 62.0046 176.952C62.5103 177.969 62.7631 179.156 62.7631 180.514C62.7631 181.866 62.5103 183.048 62.0046 184.06C61.4989 185.071 60.7887 185.858 59.8739 186.42C58.9592 186.983 57.8881 187.264 56.6609 187.264ZM56.6694 185.125C57.4648 185.125 58.1239 184.915 58.6467 184.494C59.1694 184.074 59.5558 183.514 59.8058 182.815C60.0614 182.116 60.1893 181.347 60.1893 180.506C60.1893 179.67 60.0614 178.903 59.8058 178.205C59.5558 177.5 59.1694 176.935 58.6467 176.509C58.1239 176.082 57.4648 175.869 56.6694 175.869C55.8683 175.869 55.2035 176.082 54.6751 176.509C54.1523 176.935 53.7631 177.5 53.5075 178.205C53.2575 178.903 53.1325 179.67 53.1325 180.506C53.1325 181.347 53.2575 182.116 53.5075 182.815C53.7631 183.514 54.1523 184.074 54.6751 184.494C55.2035 184.915 55.8683 185.125 56.6694 185.125ZM73.9002 181.571V173.909H76.457V187H73.9513V184.733H73.815C73.5138 185.432 73.0309 186.014 72.3661 186.48C71.707 186.94 70.886 187.17 69.9031 187.17C69.0621 187.17 68.3178 186.986 67.6701 186.616C67.0281 186.241 66.5224 185.688 66.1531 184.955C65.7894 184.222 65.6076 183.315 65.6076 182.236V173.909H68.1559V181.929C68.1559 182.821 68.4031 183.531 68.8974 184.06C69.3917 184.588 70.0337 184.852 70.8235 184.852C71.3008 184.852 71.7752 184.733 72.2468 184.494C72.7241 184.256 73.119 183.895 73.4315 183.412C73.7496 182.929 73.9059 182.315 73.9002 181.571ZM79.881 187V173.909H82.3441V175.989H82.4805C82.7191 175.284 83.1396 174.73 83.7418 174.327C84.3498 173.918 85.0373 173.713 85.8043 173.713C85.9634 173.713 86.1509 173.719 86.3668 173.73C86.5884 173.741 86.7617 173.756 86.8867 173.773V176.21C86.7844 176.182 86.6026 176.151 86.3413 176.116C86.0799 176.077 85.8185 176.057 85.5572 176.057C84.9549 176.057 84.418 176.185 83.9464 176.44C83.4805 176.69 83.1112 177.04 82.8384 177.489C82.5657 177.932 82.4293 178.437 82.4293 179.006V187H79.881ZM105.253 177.105L102.944 177.514C102.847 177.219 102.694 176.937 102.483 176.67C102.279 176.403 102 176.185 101.648 176.014C101.296 175.844 100.855 175.759 100.327 175.759C99.6055 175.759 99.0032 175.92 98.5202 176.244C98.0373 176.562 97.7958 176.974 97.7958 177.48C97.7958 177.918 97.9577 178.27 98.2816 178.537C98.6055 178.804 99.1282 179.023 99.8498 179.193L101.929 179.67C103.134 179.949 104.032 180.378 104.623 180.957C105.213 181.537 105.509 182.29 105.509 183.216C105.509 184 105.282 184.699 104.827 185.312C104.378 185.92 103.75 186.398 102.944 186.744C102.142 187.091 101.213 187.264 100.157 187.264C98.6907 187.264 97.4947 186.952 96.5685 186.327C95.6424 185.696 95.0742 184.801 94.864 183.642L97.3271 183.267C97.4805 183.909 97.7958 184.395 98.2731 184.724C98.7504 185.048 99.3725 185.21 100.14 185.21C100.975 185.21 101.642 185.037 102.142 184.69C102.642 184.338 102.892 183.909 102.892 183.403C102.892 182.994 102.739 182.651 102.432 182.372C102.131 182.094 101.668 181.884 101.043 181.741L98.8271 181.256C97.6055 180.977 96.7021 180.534 96.1168 179.926C95.5373 179.318 95.2475 178.548 95.2475 177.616C95.2475 176.844 95.4634 176.168 95.8952 175.588C96.3271 175.009 96.9237 174.557 97.685 174.233C98.4464 173.903 99.3185 173.739 100.301 173.739C101.716 173.739 102.83 174.045 103.642 174.659C104.455 175.267 104.992 176.082 105.253 177.105ZM113.825 187.264C112.558 187.264 111.467 186.977 110.552 186.403C109.643 185.824 108.944 185.026 108.456 184.009C107.967 182.991 107.723 181.827 107.723 180.514C107.723 179.185 107.973 178.011 108.473 176.994C108.973 175.972 109.677 175.173 110.586 174.599C111.495 174.026 112.566 173.739 113.799 173.739C114.794 173.739 115.68 173.923 116.458 174.293C117.237 174.656 117.865 175.168 118.342 175.827C118.825 176.486 119.112 177.256 119.203 178.136H116.723C116.586 177.523 116.274 176.994 115.785 176.551C115.302 176.108 114.654 175.886 113.842 175.886C113.132 175.886 112.51 176.074 111.975 176.449C111.447 176.818 111.035 177.347 110.74 178.034C110.444 178.716 110.297 179.523 110.297 180.455C110.297 181.409 110.441 182.233 110.731 182.926C111.021 183.619 111.43 184.156 111.958 184.537C112.493 184.918 113.12 185.108 113.842 185.108C114.325 185.108 114.762 185.02 115.154 184.844C115.552 184.662 115.885 184.403 116.152 184.068C116.424 183.733 116.615 183.33 116.723 182.858H119.203C119.112 183.705 118.836 184.46 118.376 185.125C117.916 185.79 117.299 186.312 116.527 186.693C115.76 187.074 114.859 187.264 113.825 187.264ZM124.476 179.227V187H121.928V169.545H124.442V176.04H124.604C124.911 175.335 125.38 174.776 126.01 174.361C126.641 173.946 127.465 173.739 128.482 173.739C129.38 173.739 130.164 173.923 130.834 174.293C131.51 174.662 132.033 175.213 132.402 175.946C132.777 176.673 132.965 177.582 132.965 178.673V187H130.417V178.98C130.417 178.02 130.169 177.276 129.675 176.747C129.181 176.213 128.493 175.946 127.613 175.946C127.01 175.946 126.471 176.074 125.993 176.33C125.522 176.585 125.15 176.96 124.877 177.455C124.61 177.943 124.476 178.534 124.476 179.227ZM142.007 187.264C140.718 187.264 139.607 186.989 138.675 186.438C137.749 185.881 137.033 185.099 136.527 184.094C136.027 183.082 135.777 181.898 135.777 180.54C135.777 179.199 136.027 178.017 136.527 176.994C137.033 175.972 137.738 175.173 138.641 174.599C139.55 174.026 140.613 173.739 141.828 173.739C142.567 173.739 143.283 173.861 143.976 174.105C144.669 174.349 145.292 174.733 145.843 175.256C146.394 175.778 146.828 176.457 147.147 177.293C147.465 178.122 147.624 179.131 147.624 180.318V181.222H137.218V179.312H145.127C145.127 178.642 144.99 178.048 144.718 177.531C144.445 177.009 144.061 176.597 143.567 176.295C143.078 175.994 142.505 175.844 141.846 175.844C141.13 175.844 140.505 176.02 139.971 176.372C139.442 176.719 139.033 177.173 138.743 177.736C138.459 178.293 138.317 178.898 138.317 179.551V181.043C138.317 181.918 138.471 182.662 138.777 183.276C139.09 183.889 139.525 184.358 140.081 184.682C140.638 185 141.289 185.159 142.033 185.159C142.516 185.159 142.956 185.091 143.354 184.955C143.752 184.812 144.096 184.602 144.385 184.324C144.675 184.045 144.897 183.702 145.05 183.293L147.462 183.727C147.269 184.437 146.922 185.06 146.422 185.594C145.928 186.122 145.306 186.534 144.556 186.83C143.811 187.119 142.962 187.264 142.007 187.264ZM155.352 187.256C154.295 187.256 153.352 186.986 152.522 186.446C151.699 185.901 151.051 185.125 150.579 184.119C150.113 183.108 149.88 181.895 149.88 180.48C149.88 179.065 150.116 177.855 150.588 176.849C151.065 175.844 151.718 175.074 152.548 174.54C153.377 174.006 154.318 173.739 155.369 173.739C156.181 173.739 156.835 173.875 157.329 174.148C157.829 174.415 158.216 174.727 158.488 175.085C158.767 175.443 158.983 175.759 159.136 176.031H159.289V169.545H161.838V187H159.349V184.963H159.136C158.983 185.241 158.761 185.56 158.471 185.918C158.187 186.276 157.795 186.588 157.295 186.855C156.795 187.122 156.147 187.256 155.352 187.256ZM155.914 185.082C156.647 185.082 157.267 184.889 157.772 184.503C158.284 184.111 158.67 183.568 158.931 182.875C159.199 182.182 159.332 181.375 159.332 180.455C159.332 179.545 159.201 178.75 158.94 178.068C158.679 177.386 158.295 176.855 157.789 176.474C157.284 176.094 156.659 175.903 155.914 175.903C155.147 175.903 154.508 176.102 153.997 176.5C153.485 176.898 153.099 177.44 152.838 178.128C152.582 178.815 152.454 179.591 152.454 180.455C152.454 181.33 152.585 182.116 152.846 182.815C153.108 183.514 153.494 184.068 154.005 184.477C154.522 184.881 155.159 185.082 155.914 185.082ZM173.767 181.571V173.909H176.324V187H173.819V184.733H173.682C173.381 185.432 172.898 186.014 172.233 186.48C171.574 186.94 170.753 187.17 169.77 187.17C168.929 187.17 168.185 186.986 167.537 186.616C166.895 186.241 166.39 185.688 166.02 184.955C165.657 184.222 165.475 183.315 165.475 182.236V173.909H168.023V181.929C168.023 182.821 168.27 183.531 168.765 184.06C169.259 184.588 169.901 184.852 170.691 184.852C171.168 184.852 171.642 184.733 172.114 184.494C172.591 184.256 172.986 183.895 173.299 183.412C173.617 182.929 173.773 182.315 173.767 181.571ZM182.297 169.545V187H179.748V169.545H182.297ZM185.725 187V173.909H188.273V187H185.725ZM187.012 171.889C186.569 171.889 186.188 171.741 185.87 171.446C185.557 171.145 185.401 170.787 185.401 170.372C185.401 169.952 185.557 169.594 185.87 169.298C186.188 168.997 186.569 168.847 187.012 168.847C187.455 168.847 187.833 168.997 188.145 169.298C188.463 169.594 188.623 169.952 188.623 170.372C188.623 170.787 188.463 171.145 188.145 171.446C187.833 171.741 187.455 171.889 187.012 171.889ZM194.25 179.227V187H191.701V173.909H194.147V176.04H194.309C194.61 175.347 195.082 174.79 195.724 174.369C196.372 173.949 197.187 173.739 198.17 173.739C199.062 173.739 199.843 173.926 200.514 174.301C201.184 174.67 201.704 175.222 202.074 175.955C202.443 176.687 202.627 177.594 202.627 178.673V187H200.079V178.98C200.079 178.031 199.832 177.29 199.338 176.756C198.843 176.216 198.164 175.946 197.301 175.946C196.71 175.946 196.184 176.074 195.724 176.33C195.27 176.585 194.909 176.96 194.642 177.455C194.38 177.943 194.25 178.534 194.25 179.227ZM211.534 192.182C210.494 192.182 209.599 192.045 208.849 191.773C208.105 191.5 207.497 191.139 207.025 190.69C206.554 190.241 206.201 189.75 205.968 189.216L208.159 188.312C208.312 188.562 208.517 188.827 208.772 189.105C209.034 189.389 209.386 189.631 209.829 189.83C210.278 190.028 210.855 190.128 211.559 190.128C212.525 190.128 213.324 189.892 213.954 189.42C214.585 188.955 214.9 188.21 214.9 187.188V184.614H214.738C214.585 184.892 214.363 185.202 214.074 185.543C213.789 185.884 213.397 186.179 212.897 186.429C212.397 186.679 211.747 186.804 210.946 186.804C209.912 186.804 208.98 186.562 208.15 186.08C207.326 185.591 206.673 184.872 206.19 183.923C205.713 182.969 205.474 181.795 205.474 180.403C205.474 179.011 205.71 177.818 206.181 176.824C206.659 175.83 207.312 175.068 208.142 174.54C208.971 174.006 209.912 173.739 210.963 173.739C211.775 173.739 212.431 173.875 212.931 174.148C213.431 174.415 213.821 174.727 214.099 175.085C214.383 175.443 214.602 175.759 214.755 176.031H214.943V173.909H217.44V187.29C217.44 188.415 217.179 189.338 216.656 190.06C216.133 190.781 215.426 191.315 214.534 191.662C213.647 192.009 212.647 192.182 211.534 192.182ZM211.508 184.69C212.241 184.69 212.86 184.52 213.366 184.179C213.877 183.832 214.264 183.338 214.525 182.696C214.792 182.048 214.926 181.273 214.926 180.369C214.926 179.489 214.795 178.713 214.534 178.043C214.272 177.372 213.889 176.849 213.383 176.474C212.877 176.094 212.252 175.903 211.508 175.903C210.741 175.903 210.102 176.102 209.591 176.5C209.079 176.892 208.693 177.426 208.431 178.102C208.176 178.778 208.048 179.534 208.048 180.369C208.048 181.227 208.179 181.98 208.44 182.628C208.701 183.276 209.088 183.781 209.599 184.145C210.116 184.509 210.752 184.69 211.508 184.69ZM237.019 177.105L234.709 177.514C234.613 177.219 234.459 176.937 234.249 176.67C234.044 176.403 233.766 176.185 233.414 176.014C233.061 175.844 232.621 175.759 232.093 175.759C231.371 175.759 230.769 175.92 230.286 176.244C229.803 176.562 229.561 176.974 229.561 177.48C229.561 177.918 229.723 178.27 230.047 178.537C230.371 178.804 230.894 179.023 231.615 179.193L233.695 179.67C234.9 179.949 235.797 180.378 236.388 180.957C236.979 181.537 237.275 182.29 237.275 183.216C237.275 184 237.047 184.699 236.593 185.312C236.144 185.92 235.516 186.398 234.709 186.744C233.908 187.091 232.979 187.264 231.922 187.264C230.456 187.264 229.26 186.952 228.334 186.327C227.408 185.696 226.84 184.801 226.63 183.642L229.093 183.267C229.246 183.909 229.561 184.395 230.039 184.724C230.516 185.048 231.138 185.21 231.905 185.21C232.74 185.21 233.408 185.037 233.908 184.69C234.408 184.338 234.658 183.909 234.658 183.403C234.658 182.994 234.505 182.651 234.198 182.372C233.897 182.094 233.434 181.884 232.809 181.741L230.593 181.256C229.371 180.977 228.468 180.534 227.882 179.926C227.303 179.318 227.013 178.548 227.013 177.616C227.013 176.844 227.229 176.168 227.661 175.588C228.093 175.009 228.689 174.557 229.451 174.233C230.212 173.903 231.084 173.739 232.067 173.739C233.482 173.739 234.596 174.045 235.408 174.659C236.221 175.267 236.757 176.082 237.019 177.105ZM245.591 187.264C244.363 187.264 243.292 186.983 242.377 186.42C241.463 185.858 240.752 185.071 240.247 184.06C239.741 183.048 239.488 181.866 239.488 180.514C239.488 179.156 239.741 177.969 240.247 176.952C240.752 175.935 241.463 175.145 242.377 174.582C243.292 174.02 244.363 173.739 245.591 173.739C246.818 173.739 247.889 174.02 248.804 174.582C249.718 175.145 250.429 175.935 250.934 176.952C251.44 177.969 251.693 179.156 251.693 180.514C251.693 181.866 251.44 183.048 250.934 184.06C250.429 185.071 249.718 185.858 248.804 186.42C247.889 186.983 246.818 187.264 245.591 187.264ZM245.599 185.125C246.395 185.125 247.054 184.915 247.576 184.494C248.099 184.074 248.485 183.514 248.735 182.815C248.991 182.116 249.119 181.347 249.119 180.506C249.119 179.67 248.991 178.903 248.735 178.205C248.485 177.5 248.099 176.935 247.576 176.509C247.054 176.082 246.395 175.869 245.599 175.869C244.798 175.869 244.133 176.082 243.605 176.509C243.082 176.935 242.693 177.5 242.437 178.205C242.187 178.903 242.062 179.67 242.062 180.506C242.062 181.347 242.187 182.116 242.437 182.815C242.693 183.514 243.082 184.074 243.605 184.494C244.133 184.915 244.798 185.125 245.599 185.125ZM257.086 169.545V187H254.537V169.545H257.086ZM268.806 181.571V173.909H271.363V187H268.858V184.733H268.721C268.42 185.432 267.937 186.014 267.272 186.48C266.613 186.94 265.792 187.17 264.809 187.17C263.968 187.17 263.224 186.986 262.576 186.616C261.934 186.241 261.429 185.688 261.059 184.955C260.696 184.222 260.514 183.315 260.514 182.236V173.909H263.062V181.929C263.062 182.821 263.309 183.531 263.804 184.06C264.298 184.588 264.94 184.852 265.73 184.852C266.207 184.852 266.681 184.733 267.153 184.494C267.63 184.256 268.025 183.895 268.338 183.412C268.656 182.929 268.812 182.315 268.806 181.571ZM280.898 173.909V175.955H273.748V173.909H280.898ZM275.665 170.773H278.213V183.156C278.213 183.651 278.287 184.023 278.435 184.273C278.583 184.517 278.773 184.685 279.006 184.776C279.245 184.861 279.503 184.903 279.782 184.903C279.986 184.903 280.165 184.889 280.319 184.861C280.472 184.832 280.591 184.81 280.676 184.793L281.137 186.898C280.989 186.955 280.779 187.011 280.506 187.068C280.233 187.131 279.892 187.165 279.483 187.17C278.813 187.182 278.188 187.062 277.608 186.812C277.029 186.562 276.56 186.176 276.202 185.653C275.844 185.131 275.665 184.474 275.665 183.685V170.773ZM283.717 187V173.909H286.265V187H283.717ZM285.004 171.889C284.561 171.889 284.18 171.741 283.862 171.446C283.549 171.145 283.393 170.787 283.393 170.372C283.393 169.952 283.549 169.594 283.862 169.298C284.18 168.997 284.561 168.847 285.004 168.847C285.447 168.847 285.825 168.997 286.137 169.298C286.456 169.594 286.615 169.952 286.615 170.372C286.615 170.787 286.456 171.145 286.137 171.446C285.825 171.741 285.447 171.889 285.004 171.889ZM295.208 187.264C293.98 187.264 292.909 186.983 291.995 186.42C291.08 185.858 290.37 185.071 289.864 184.06C289.358 183.048 289.105 181.866 289.105 180.514C289.105 179.156 289.358 177.969 289.864 176.952C290.37 175.935 291.08 175.145 291.995 174.582C292.909 174.02 293.98 173.739 295.208 173.739C296.435 173.739 297.506 174.02 298.421 174.582C299.336 175.145 300.046 175.935 300.551 176.952C301.057 177.969 301.31 179.156 301.31 180.514C301.31 181.866 301.057 183.048 300.551 184.06C300.046 185.071 299.336 185.858 298.421 186.42C297.506 186.983 296.435 187.264 295.208 187.264ZM295.216 185.125C296.012 185.125 296.671 184.915 297.194 184.494C297.716 184.074 298.103 183.514 298.353 182.815C298.608 182.116 298.736 181.347 298.736 180.506C298.736 179.67 298.608 178.903 298.353 178.205C298.103 177.5 297.716 176.935 297.194 176.509C296.671 176.082 296.012 175.869 295.216 175.869C294.415 175.869 293.75 176.082 293.222 176.509C292.699 176.935 292.31 177.5 292.054 178.205C291.804 178.903 291.679 179.67 291.679 180.506C291.679 181.347 291.804 182.116 292.054 182.815C292.31 183.514 292.699 184.074 293.222 184.494C293.75 184.915 294.415 185.125 295.216 185.125ZM306.703 179.227V187H304.154V173.909H306.6V176.04H306.762C307.064 175.347 307.535 174.79 308.177 174.369C308.825 173.949 309.64 173.739 310.623 173.739C311.515 173.739 312.297 173.926 312.967 174.301C313.637 174.67 314.157 175.222 314.527 175.955C314.896 176.687 315.081 177.594 315.081 178.673V187H312.532V178.98C312.532 178.031 312.285 177.29 311.791 176.756C311.297 176.216 310.618 175.946 309.754 175.946C309.163 175.946 308.637 176.074 308.177 176.33C307.723 176.585 307.362 176.96 307.095 177.455C306.833 177.943 306.703 178.534 306.703 179.227ZM321.711 169.545L321.49 181.98H319.129L318.907 169.545H321.711ZM320.314 187.162C319.842 187.162 319.439 186.997 319.103 186.668C318.768 186.332 318.603 185.929 318.609 185.457C318.603 184.991 318.768 184.594 319.103 184.264C319.439 183.929 319.842 183.761 320.314 183.761C320.774 183.761 321.172 183.929 321.507 184.264C321.842 184.594 322.012 184.991 322.018 185.457C322.012 185.77 321.93 186.057 321.771 186.318C321.618 186.574 321.413 186.778 321.157 186.932C320.902 187.085 320.62 187.162 320.314 187.162Z" fill="white"/>
<defs>
<clipPath id="clip0_14_301">
<rect width="316.972" height="271.793" fill="white" transform="translate(21.5139 63.1076)"/>
</clipPath>
</defs>
</svg>
